<svg id="Layer_1" data-name="Layer 1" xmlns="http://www.w3.org/2000/svg" viewBox="0 0 446 211.081"><title>Services Icons</title><path d="M240.5659,104.632a6.5591,6.5591,0,0,0,6.5589,6.5589h9.71a6.559,6.559,0,1,0,0-13.1179h-9.71A6.5593,6.5593,0,0,0,240.5659,104.632Z" style="fill:#fff"/><path d="M160.9319,98.0729h-9.71a6.559,6.559,0,0,0,0,13.1179h9.71a6.559,6.559,0,1,0,0-13.1179Z" style="fill:#fff"/><path d="M354.9753,158.7879a11.1255,11.1255,0,1,0,.3387,2.6966A11.2518,11.2518,0,0,0,354.9753,158.7879Z" style="fill:#fff"/><path d="M88.5346,154.1027a11.2444,11.2444,0,1,0,2.7716,7.3818A11.2206,11.2206,0,0,0,88.5346,154.1027Z" style="fill:#fff"/><path d="M419.21,104.8988c-12.7894-12.79-61.3237-19.8286-94.8742-23.2539a4.78,4.78,0,0,0-.8516-.9729L261.7537,27.76a4.8061,4.8061,0,0,0-2.4786-1.1126c-.5966-.0815-60.3791-8.014-121.9774,2.0467-16.4566,2.6885-39.4263,11.4533-68.272,26.0514C50.0421,64.3533,34.633,73.457,31.362,75.4108l-.3207-.0044L9.6129,91.909,10.8377,162.35l30.6653.5391a38.5709,38.5709,0,0,0,77.0185,1.3544l187.43,3.2955a38.582,38.582,0,0,0,75.9713,1.336l53.3708.9384.3657-4.4946C435.7952,163.6592,438.7461,124.4347,419.21,104.8988Zm-6.7964,6.7964a35.4442,35.4442,0,0,1,6.201,8.6066H399.4611l-8.494-17.9692C404.6824,106.077,410.2023,109.4843,412.4137,111.6952ZM234.2208,78.1838V34.082c11.3211.6746,19.3115,1.5512,22.3754,1.9175l50.5309,43.3122-12.8979-.198-60.0084-.9214ZM143.6054,37.4406c30.1944-4.4851,59.5787-4.6938,81.0028-3.837V78.0524l-83.8556-1.1463.0107-.149Zm-9.7609,1.7171-2.7073,37.4517L50.7339,75.3749C71.0622,64.0639,107.7493,45.0029,133.8445,39.1577ZM105.3761,164.0128a25.45,25.45,0,0,1-50.722-.8919c-.0344-.5415-.0579-1.0861-.0579-1.6363a25.4529,25.4529,0,0,1,50.9057,0C105.5018,162.3379,105.4581,163.181,105.3761,164.0128Zm263.1069,4.6262a25.456,25.456,0,1,1,.9073-9.5976c.0767.8045.1193,1.6188.1193,2.4431A25.4418,25.4418,0,0,1,368.4829,168.639ZM291.5158,88.5746c.2672.0166,1.032.065,2.2009.1443,7.0285.4774,29.189,2.1181,52.6292,5.2651,13.3367,1.79,24.0367,3.6445,32.629,5.4715l14.3986,30.4588h29.1153c.4349,1.4359.8168,2.8845,1.16,4.333l-18.623,12.4151-.9614,12.9888-21.4933-.3778a38.5765,38.5765,0,0,0-76.9254-1.3527l-187.6361-3.3a38.5779,38.5779,0,0,0-75.6615-1.3305l-22.0607-.3879-.9793-56.327L34.2563,85.0625,226.581,87.6881m199.6678,72.3532-12.5592-.2208.5755-7.7649,11.1889-7.4595A119.3716,119.3716,0,0,1,426.2488,160.0414Z" style="fill:#fff"/><line x1="230.2412" y1="86.8019" x2="230.2412" y2="160.6579" style="fill:none;stroke:#fff;stroke-miterlimit:10;stroke-width:5.787226291453254px"/><path d="M61.8605,83.4949c-.8267.2756-26.4559,26.4559-26.4559,26.4559h-21.22" style="fill:none;stroke:#fff;stroke-miterlimit:10;stroke-width:5.787226291453254px"/></svg>