<svg id="Layer_1" data-name="Layer 1" xmlns="http://www.w3.org/2000/svg" viewBox="0 0 446 247.081"><title>Services Icons-AirTransport</title><path d="M86.9095,225.5647H429.2549V21.5163H86.9095ZM117.2956,182.17h-7.1991v25.997h-5.9573V182.17h-7.01v-4.6525h20.1661Zm9.1571,25.997h-5.915v-30.65h5.915ZM151.65,187.0322h-5.768q0-2.9459-1.0418-4.1256a4.4522,4.4522,0,0,0-3.484-1.1789,3.8014,3.8014,0,0,0-3.3473,1.61,8.7532,8.7532,0,0,0-1.1155,4.937V197.41a8.3085,8.3085,0,0,0,1.2,4.9577,4.2237,4.2237,0,0,0,3.6207,1.61,3.9089,3.9089,0,0,0,3.1787-1.1677q.9678-1.1693.968-4.1575h5.7468l.0422.1259q.0837,4.9259-2.5155,7.3784t-7.42,2.4526a10.5862,10.5862,0,0,1-7.8519-2.9157q-2.9053-2.9161-2.9049-8.2839v-9.0937q0-5.3467,2.81-8.2935a9.9911,9.9911,0,0,1,7.5888-2.9475q5.0311,0,7.7255,2.4422t2.61,7.3888Zm17.83,21.1349-6.5467-12.8622h-1.6208v12.8622h-5.9361v-30.65h5.9361v12.5458h1.2211l6.5044-12.5458h7.3677l-8.841,13.9988,9.4934,16.6507Zm27.0918,0h-17.156v-30.65H196.53V182.17h-11.178V190h9.3675v4.6309h-9.3675v8.9048h11.22Zm200.4221-84.61-12.5093,7.8491a25.0894,25.0894,0,0,1-3.5023,1.8223l-18.29,7.7732-19.2885,63.34-8.7673,3.7253-2.4607-5.9415-8.4921-44.67-34.9373,12.5663-9.3392,27.368-18.2422,1.59-2.3942-24.3782-7.1277,1.025-3.9437-9.287,5.68-4.4231L237.29,143.052,251.3083,131.25l26.165,12.2578,33.29-16.4339L284.57,90.1433l-2.6339-6.0886,8.7534-3.7159,58.99,30.0587,18.292-7.7779a24.6062,24.6062,0,0,1,3.7372-1.253l14.3364-3.5687c8.0153-2.0074,15.7721,1.1105,18.4391,7.37C407.1493,111.4369,404.0007,119.1674,396.9937,123.5572ZM233.3939,37.81h180.323V64.8033H233.3939ZM218.78,182.17h-7.1991v25.997h-5.9573V182.17h-7.01v-4.6525H218.78ZM95.9645,37.81H218.6837v6.7479H95.9645Zm0,27.3425H218.6837V71.9H95.9645Zm0,27.3425H218.6837v6.7479H95.9645Zm0,27.3425H218.6837v6.7479H95.9645Z" style="fill:none"/><path d="M78.7476,13.3544V233.7266H437.4168V13.3544Zm350.5073,212.21H86.9095V21.5163H429.2549Z" style="fill:#fff"/><rect x="22.6152" y="26.4586" width="35.0376" height="194.1637" style="fill:#fff"/><path d="M8.5832,233.7266H71.6848V13.3544H8.5832ZM12.6644,17.4355h54.94v212.21h-54.94Z" style="fill:#fff"/><rect x="95.9645" y="37.8099" width="122.7192" height="6.7479" style="fill:#fff"/><rect x="233.3939" y="37.8099" width="180.323" height="26.9934" style="fill:#fff"/><rect x="95.9645" y="65.1524" width="122.7192" height="6.7479" style="fill:#fff"/><rect x="95.9645" y="92.4949" width="122.7192" height="6.7479" style="fill:#fff"/><rect x="95.9645" y="119.8373" width="122.7192" height="6.7479" style="fill:#fff"/><polygon points="97.129 182.17 104.139 182.17 104.139 208.167 110.096 208.167 110.096 182.17 117.296 182.17 117.296 177.518 97.129 177.518 97.129 182.17" style="fill:#fff"/><rect x="120.5376" y="177.5177" width="5.915" height="30.6495" style="fill:#fff"/><path d="M141.3565,177.0753a9.9911,9.9911,0,0,0-7.5888,2.9475q-2.81,2.9471-2.81,8.2935V197.41q0,5.3682,2.9049,8.2839a10.5862,10.5862,0,0,0,7.8519,2.9157q4.82,0,7.42-2.4526t2.5155-7.3784l-.0422-.1259h-5.7468q0,2.989-.968,4.1575a3.9089,3.9089,0,0,1-3.1787,1.1677,4.2237,4.2237,0,0,1-3.6207-1.61,8.3085,8.3085,0,0,1-1.2-4.9577v-9.1352a8.7532,8.7532,0,0,1,1.1155-4.937,3.8014,3.8014,0,0,1,3.3473-1.61,4.4522,4.4522,0,0,1,3.484,1.1789q1.042,1.1789,1.0418,4.1256h5.768l.0418-.1259q.0843-4.9462-2.61-7.3888T141.3565,177.0753Z" style="fill:#fff"/><polygon points="176.405 177.518 169.038 177.518 162.533 190.063 161.312 190.063 161.312 177.518 155.376 177.518 155.376 208.167 161.312 208.167 161.312 195.305 162.933 195.305 169.48 208.167 177.058 208.167 167.564 191.517 176.405 177.518" style="fill:#fff"/><polygon points="185.352 194.631 194.719 194.631 194.719 190 185.352 190 185.352 182.17 196.53 182.17 196.53 177.518 179.416 177.518 179.416 208.167 196.572 208.167 196.572 203.536 185.352 203.536 185.352 194.631" style="fill:#fff"/><polygon points="198.614 182.17 205.623 182.17 205.623 208.167 211.581 208.167 211.581 182.17 218.78 182.17 218.78 177.518 198.614 177.518 198.614 182.17" style="fill:#fff"/><path d="M386.0456,97.7979l-14.3364,3.5687a24.6062,24.6062,0,0,0-3.7372,1.253l-18.292,7.7779L290.69,80.3388l-8.7534,3.7159,2.6339,6.0886,26.1933,36.93-33.29,16.4339L251.3083,131.25,237.29,143.052l16.09,18.8637-5.68,4.4231,3.9437,9.287,7.1277-1.025,2.3942,24.3782,18.2422-1.59,9.3392-27.368,34.9373-12.5663,8.4921,44.67,2.4607,5.9415,8.7673-3.7253,19.2885-63.34,18.29-7.7732a25.0894,25.0894,0,0,0,3.5023-1.8223l12.5093-7.8491c7.007-4.39,10.1556-12.12,7.491-18.3893C401.8177,98.9084,394.0609,95.7905,386.0456,97.7979Z" style="fill:#fff"/></svg>