<svg id="Layer_1" data-name="Layer 1" xmlns="http://www.w3.org/2000/svg" viewBox="0 0 342.105 299"><title>Services Icons</title><path d="M311.6939,266.4462H50.8474a2.8218,2.8218,0,0,1-2.7573-2.2234L31.16,186.3133a2.8221,2.8221,0,0,1,2.7573-3.4212H224.2227V142.9205a2.8224,2.8224,0,0,1,2.8216-2.8223H327.37a2.8231,2.8231,0,0,1,2.7979,3.1854L314.4918,263.987A2.8216,2.8216,0,0,1,311.6939,266.4462ZM53.1217,260.8015H309.215l14.9428-115.0587H229.866v39.9716a2.8224,2.8224,0,0,1-2.8216,2.8223H37.4181Z" style="fill:#fff"/><rect x="162.6968" y="141.5436" width="54.3152" height="34.9227" style="fill:#fff"/><rect x="100.0681" y="141.5436" width="54.3152" height="34.9227" style="fill:#fff"/><rect x="120.6855" y="100.1249" width="54.3152" height="34.9227" style="fill:#fff"/><rect x="182.7619" y="100.1249" width="54.3152" height="34.9227" style="fill:#fff"/><path d="M273.6015,135.3817H254.781a1.5545,1.5545,0,0,1-1.5541-1.5541V81.7837A1.5545,1.5545,0,0,1,254.781,80.23h18.8206a1.5545,1.5545,0,0,1,1.5541,1.5541v52.044A1.5545,1.5545,0,0,1,273.6015,135.3817Zm-17.2665-3.1082h15.7124V83.3378H256.3351Z" style="fill:#fff"/><path d="M273.6015,98.1213H254.781a1.5545,1.5545,0,0,1-1.5541-1.5541V81.7837A1.5545,1.5545,0,0,1,254.781,80.23h18.8206a1.5545,1.5545,0,0,1,1.5541,1.5541V96.5672A1.5545,1.5545,0,0,1,273.6015,98.1213Zm-17.2665-3.1082h15.7124V83.3378H256.3351Z" style="fill:#fff"/><path d="M303.6991,135.3817H284.8786a1.5545,1.5545,0,0,1-1.5541-1.5541V49.8048a1.5545,1.5545,0,0,1,1.5541-1.5541h18.8206a1.5545,1.5545,0,0,1,1.5541,1.5541v84.0229A1.5545,1.5545,0,0,1,303.6991,135.3817Zm-17.2665-3.1082H302.145V51.3589H286.4327Z" style="fill:#fff"/><path d="M303.6991,75.2258H284.8786a1.5545,1.5545,0,0,1-1.5541-1.5541V49.8048a1.5545,1.5545,0,0,1,1.5541-1.5541h18.8206a1.5545,1.5545,0,0,1,1.5541,1.5541v23.867A1.5545,1.5545,0,0,1,303.6991,75.2258Zm-17.2665-3.1082H302.145V51.3589H286.4327Z" style="fill:#fff"/><rect x="58.0568" y="100.1249" width="54.3152" height="34.9227" style="fill:#fff"/><rect x="37.053" y="141.5436" width="54.3152" height="34.9227" style="fill:#fff"/><path d="M83.4536,241.1416a17.0212,17.0212,0,1,1,17.0212-17.0205A17.04,17.04,0,0,1,83.4536,241.1416Zm0-26.3356a9.3144,9.3144,0,1,0,9.3144,9.3151A9.3253,9.3253,0,0,0,83.4536,214.806Z" style="fill:#fff"/><path d="M179.39,239.8883a17.0212,17.0212,0,1,1,17.0212-17.0219A17.0411,17.0411,0,0,1,179.39,239.8883Zm0-26.3356a9.3144,9.3144,0,1,0,9.3144,9.3137A9.325,9.325,0,0,0,179.39,213.5527Z" style="fill:#fff"/><path d="M272.8177,236.753a17.0212,17.0212,0,1,1,17.0212-17.0219A17.0411,17.0411,0,0,1,272.8177,236.753Zm0-26.3356a9.3144,9.3144,0,1,0,9.3144,9.3137A9.325,9.325,0,0,0,272.8177,210.4174Z" style="fill:#fff"/><polygon points="47.869 263.624 314.672 263.624 311.466 289.959 52.729 287.765 47.869 263.624" style="fill:#fff"/><path d="M74.5017,89.6531c-10.502,0-21.1341-4.642-21.1341-13.5127,0-5.4265-4.5349-6.7069-8.3389-6.8247-6.0762-.2019-11.6374,2.7573-11.7553,4.6393a2.6527,2.6527,0,0,1-5.295-.3306c.3726-5.97,9.3828-9.8571,17.2157-9.6118,8.3145.2588,13.4795,4.9062,13.4795,12.1279,0,5.33,8.1546,8.2068,15.8282,8.2068a23.5374,23.5374,0,0,0,10.6524-2.2559c2.6238-1.401,3.9543-3.245,3.9543-5.4807,0-4.7124,1.43-8.5143,4.2511-11.3028,5.73-5.6636,15.4963-5.5579,21.9613-5.4725.6538.0081,1.2689.0149,1.8359.0149,8.2034,0,11.02,5.5687,13.5045,10.48,2.9,5.7327,5.4034,10.6822,15.6528,10.6822,10.065,0,13.8067-4.1244,13.8067-15.2185,0-3.47,1.8651-6.4183,5.2517-8.303,6.4366-3.577,17.9453-3.08,24.6291,1.0663,3.41,2.115,5.2036,5.0647,5.0491,8.3043-.4153,8.7176,3.8466,12.5466,7.4954,14.224,5.4393,2.4958,12.7851,1.546,16.72-2.1706,2.428-2.2925,3.7836-5.3208,5.2192-8.5252,3.1014-6.9237,6.6168-14.7727,21.527-14.7727,7.3,0,12.6624,1.99,15.9414,5.9142a15.4525,15.4525,0,0,1,3.1285,11.7905,2.6529,2.6529,0,0,1-5.2239-.9281h0a10.1645,10.1645,0,0,0-2.0114-7.5022c-2.23-2.6326-6.2116-3.9686-11.8346-3.9686-11.4728,0-13.7728,5.1352-16.6852,11.6361-1.5839,3.5377-3.2227,7.1946-6.4176,10.2121-5.4861,5.1826-15.1921,6.5267-22.5784,3.1353-7.1513-3.287-11.0074-10.32-10.5792-19.2968.06-1.2655-.7967-2.4578-2.5473-3.5445-4.9942-3.0974-14.53-3.5634-19.2528-.9376-2.2634,1.26-2.5249,2.6963-2.5249,3.6664,0,14.0031-6.0734,20.5244-19.1125,20.5244-13.5113,0-17.4853-7.8558-20.3869-13.5926-2.5161-4.9739-4.0492-7.57-8.77-7.57-.586,0-1.2221-.0081-1.8976-.0149-5.5836-.0732-14.016-.1653-18.17,3.94-1.8,1.779-2.6746,4.2423-2.6746,7.5293,0,4.2247-2.4009,7.8328-6.76,10.1606A28.5292,28.5292,0,0,1,74.5017,89.6531Z" style="fill:#fff"/><path d="M127.215,47.2453a37.5855,37.5855,0,0,1-8.9317-1.0975c-1.15-.2452-2.4131-.5149-3.9388-.7845-6.7421-1.19-9.5265-7.7962-11.9829-13.6251-2.5391-6.0253-4.3378-9.6958-7.8931-9.85-5.0471-.2154-5.8,1.3536-8.1973,8.055a71.55,71.55,0,0,1-4.8879,11.2757c-4.5072,8.1146-12.9707,5.2178-20.4383,2.6638-8.4588-2.8941-14.31-4.4211-18.3931.5528a2.6531,2.6531,0,0,1-4.1-3.3683c6.7258-8.1837,16.42-4.8669,24.21-2.2045,8.1566,2.7911,11.9538,3.6122,14.0831-.2209a66.0238,66.0238,0,0,0,4.53-10.4858c2.2966-6.421,4.2707-11.9816,13.4232-11.5683,7.1669.3116,10.0278,7.1,12.552,13.09,2.1177,5.0268,4.1183,9.7731,8.0157,10.4614,1.5968.2818,2.9192.5636,4.123.82,4.7124,1.004,7.3064,1.5582,18.59.1016,3.57-.4607,5.898-1.3983,6.9223-2.7871,1.2228-1.66.754-4.3574.2568-7.2123a28.4375,28.4375,0,0,1-.5576-4.7693c0-7.64,11.01-12.98,21.2933-13.1739.1938-.0041.3889-.0054.584-.0054,10.1633,0,20.9844,5.02,21.5189,19.1925.107,2.8331.55,4.5,1.3949,5.2463,1.7174,1.5189,6.96,1.2045,13.1279.6761,7.79-.6666,9.162-5.356,10.4946-12.9964.7581-4.3466,1.4742-8.452,4.75-10.5725A16.7514,16.7514,0,0,1,233.61,13.1758a14.2218,14.2218,0,0,1,8.4337,10.7865c2.2864,13.3406,7.8694,13.1956,18.9893,12.8921l1.8488-.0461c4.33-.0989,6.1209-3.764,8.6837-9.7351,1.8718-4.3615,3.9936-9.3043,8.1573-12.3325,4.2213-3.0716,11.357-2.1679,16.2245.313,3.7782,1.924,5.8594,4.5783,5.8594,7.4751,0,3.5282-2.5561,9.5522-4.9516,14.9231-.3516.7886-.75,1.6815-.8292,1.9091a2.6529,2.6529,0,0,1-5.0322-1.6815c.1409-.4227.43-1.0745,1.0162-2.39,1.3441-3.012,4.4909-10.0671,4.4909-12.7607,0-.4986-.7886-1.6408-2.9612-2.7478-3.7382-1.9037-8.637-2.2478-10.6964-.7493-2.9842,2.1692-4.7219,6.2191-6.402,10.1348-2.5683,5.9833-5.4786,12.7647-13.4388,12.9449l-1.8271.0474c-10.9539.2954-21.298.57-24.3615-17.3a8.88,8.88,0,0,0-5.335-6.8247,11.4668,11.4668,0,0,0-10.8313,1.0785c-1.3292.86-1.8766,3.9957-2.4057,7.028-1.1327,6.4941-2.8447,16.3079-15.2686,17.3728-8.1736.6978-13.7816.94-17.0944-1.9877-2.5913-2.29-3.0628-5.8451-3.1827-9.0211-.49-12.9869-11.84-14.1969-16.7015-14.0831-8.6634.1626-16.087,4.4631-16.087,7.8694a24.3044,24.3044,0,0,0,.479,3.8588c.6036,3.4686,1.3549,7.7854-1.2133,11.27-1.943,2.6367-5.3824,4.24-10.5142,4.9021A91.3569,91.3569,0,0,1,127.215,47.2453Z" style="fill:#fff"/></svg>