<svg id="Layer_1" data-name="Layer 1" xmlns="http://www.w3.org/2000/svg" viewBox="0 0 187.4528 134.2925"><title>Activities Icons</title><path d="M95.656,62.7077v3c20.9419,0,41.0788,9.0988,59.8951,27.0524-8.9855,7.043-35.4252,25.42-66.5948,25.42-20.9058,0-40.0909-8.2823-57.0662-24.6257,7.1208-6.7428,31.951-27.843,63.757-27.847l.009-3m-.0093,0c-39.4078.0049-68.0214,30.85-68.0214,30.85C48.0472,114.2619,69.4483,121.18,88.9563,121.18c39.2779,0,70.8518-28.0743,71.1-28.2126-22.6826-22.6825-44.87-30.2625-64.41-30.26Z" style="fill:#fff"/><path d="M93.76,113.3346s-23.39-15.6831-23.39-27.3783c0-14.2849,23.39-14.9439,23.39-3.0862a10.9433,10.9433,0,0,1,3.37-6.2116c4.9427-4.3935,20.1824-2.235,20.1824,9.2978C117.3125,99.1134,93.76,113.3346,93.76,113.3346Z" style="fill:#fff"/><path d="M157.2913,81.5452a2.5,2.5,0,0,1-1.7676-4.2676l17.2539-17.2544a2.5,2.5,0,0,1,3.5352,3.5352L159.0589,80.8127A2.4919,2.4919,0,0,1,157.2913,81.5452Z" style="fill:#fff"/><path d="M31.2015,81.5452a2.4919,2.4919,0,0,1-1.7676-.7324L12.18,63.5583a2.5,2.5,0,0,1,3.5352-3.5352L32.969,77.2776a2.5,2.5,0,0,1-1.7676,4.2676Z" style="fill:#fff"/><path d="M61.85,63.7356a2.5,2.5,0,0,1-2.3486-1.6445L51.1477,39.1643a2.5,2.5,0,1,1,4.6973-1.7119l8.3535,22.9268A2.5009,2.5009,0,0,1,61.85,63.7356Z" style="fill:#fff"/><path d="M44.885,70.8684a2.5,2.5,0,0,1-2.1123-1.16L22.2581,37.4221A2.5,2.5,0,0,1,26.4788,34.74L46.9934,67.0271a2.5011,2.5011,0,0,1-2.1084,3.8413Z" style="fill:#fff"/><path d="M79.0862,59.2375A2.5,2.5,0,0,1,76.6477,57.28L68.3421,19.94a2.5,2.5,0,1,1,4.8809-1.0859l8.3057,37.34a2.5017,2.5017,0,0,1-2.4424,3.0435Z" style="fill:#fff"/><path d="M111.5716,59.3747a2.5292,2.5292,0,0,1-.458-.042,2.5,2.5,0,0,1-2.0029-2.9131l6.958-37.6143a2.5,2.5,0,1,1,4.916.9092l-6.958,37.6143A2.5006,2.5006,0,0,1,111.5716,59.3747Z" style="fill:#fff"/><path d="M143.8655,72.03a2.5014,2.5014,0,0,1-2.26-3.5654L157.9,33.8552a2.5,2.5,0,0,1,4.5234,2.13L146.1292,70.594A2.5,2.5,0,0,1,143.8655,72.03Z" style="fill:#fff"/><path d="M127.5276,63.7356a2.5009,2.5009,0,0,1-2.3486-3.3564l8.3535-22.9268a2.5,2.5,0,1,1,4.6973,1.7119L129.8763,62.091A2.5,2.5,0,0,1,127.5276,63.7356Z" style="fill:#fff"/><path d="M95.721,56.5085a2.5,2.5,0,0,1-2.5-2.5V29.6072a2.5,2.5,0,0,1,5,0V54.0085A2.5,2.5,0,0,1,95.721,56.5085Z" style="fill:#fff"/></svg>