<svg id="Layer_1" data-name="Layer 1" xmlns="http://www.w3.org/2000/svg" viewBox="0 0 226.2051 197.0135"><title>Activities Icons-BIRDWATCHING</title><path d="M149.2473,49.9326c-5.1068,0-5.1068,7.9348,0,7.9348C154.3524,57.8674,154.3858,49.9326,149.2473,49.9326Z" style="fill:#fff"/><path d="M146.4617,157.72h-4.4072a26.8307,26.8307,0,0,1-10.7267-2.2247l-7.7189,24.6819s5.864,13.4874,20.8779,4.1071c15.0727,9.4141,20.9371-4.1071,20.9371-4.1071l-7.78-24.8874A26.5792,26.5792,0,0,1,146.4617,157.72Zm-14.08,23.3933a.8032.8032,0,0,1-.79.6665.8178.8178,0,0,1-.1372-.0117.803.803,0,0,1-.6548-.9272l3.2871-19.0483a.8027.8027,0,1,1,1.582.2725Zm11.92-.7744H144.3a.8019.8019,0,0,1-.8022-.7993l-.061-16.6938a.8016.8016,0,0,1,.7993-.8052h.0029a.8019.8019,0,0,1,.8022.7993l.061,16.6938A.8016.8016,0,0,1,144.3025,180.3389Zm13.7192,1.4292a.8178.8178,0,0,1-.1372.0117.8032.8032,0,0,1-.79-.6665l-3.2866-19.0483a.8027.8027,0,0,1,1.582-.2725l3.2866,19.0483A.803.803,0,0,1,158.0217,181.7681Z" style="fill:#fff"/><path d="M149.2473,48.1955A5.4624,5.4624,0,0,0,143.68,53.9a5.9081,5.9081,0,0,0,1.3764,3.8588,5.41,5.41,0,0,0,4.1908,1.8457,5.4646,5.4646,0,0,0,5.5785-5.7142,5.8861,5.8861,0,0,0-1.38-3.856A5.4311,5.4311,0,0,0,149.2473,48.1955Zm0,9.6719c-5.1068,0-5.1068-7.9348,0-7.9348C154.3858,49.9326,154.3524,57.8674,149.2473,57.8674Z" style="fill:#fff"/><path d="M166.18,81.4309l-.1541-15.532A22.9205,22.9205,0,0,0,143.1007,42.973a21.9221,21.9221,0,0,0-3.6092.2922,4.499,4.499,0,0,1-.1956,1.302c-.0333.0967-3.1215,9.6909.4228,16.422a12.05,12.05,0,0,0,7.8043,5.9178,3.85,3.85,0,0,1,2.5374,2.3739,3.6393,3.6393,0,0,1,.13,2.2772,3.8206,3.8206,0,0,1-.5208,1.17l-.4874.7476-1.2687,1.9515-4.975,7.6092a3.9129,3.9129,0,0,1-3.252,1.7561,3.75,3.75,0,0,1-.8464-.0967c-6.4384-1.4642-12.6821-2.5691-18.6332-3.382-.5528-.0989-1.1053-.1622-1.6581-.2273a22.0693,22.0693,0,0,0-8.8457,17.3968s-1.8534,52.5255,20.52,52.5255c3.377,0,6.6007,1.8866,10.2115,1.8866h4.7145c3.8377,0,7.1841-2.0817,10.699-2.0817,19.0143,0,20.65-34.177,20.65-34.177C176.4983,109.0276,172.5224,85.6263,166.18,81.4309ZM155.848,149.0767a19.6731,19.6731,0,0,0-5.6068,1.0783,18.0369,18.0369,0,0,1-5.0922,1.0034h-4.7145a17.9685,17.9685,0,0,1-4.808-.9022,19.8942,19.8942,0,0,0-5.4036-.9843,11.2772,11.2772,0,0,1-8.43-3.7531c-11.4467-11.8547-10.3657-46.6245-10.3535-46.9743l.0011-.0306v-.03a20.2766,20.2766,0,0,1,7.6258-15.5847c.2842.0364.5615.0762.8352.1251l.0352.0063.0354.0048c6.2.847,12.4191,1.9757,18.491,3.3566a5.4952,5.4952,0,0,0,1.2237.1382,5.68,5.68,0,0,0,4.7059-2.5426l4.9775-7.613,1.2675-1.95.4979-.764a5.5234,5.5234,0,0,0,.5439-5.01,5.5641,5.5641,0,0,0-3.6732-3.4127,10.367,10.367,0,0,1-6.75-5.0585c-3.1873-6.0531-.34-14.9773-.3175-15.0468l.0094-.0272.0084-.0275q.0406-.1317.0753-.2663c.6782-.0678,1.37-.1021,2.0694-.1021a21.2164,21.2164,0,0,1,21.1885,21.206l.1541,15.532.0091.9225.7695.509c5.4,3.5724,9.5237,25.7141,9.5393,33.7121C174.69,117.8733,172.7407,149.0767,155.848,149.0767Z" style="fill:#fff"/><path d="M113.4488,71.33c.0958.0223.2137.0823.31.1046,1.016.37,2.0554.78,3.0948,1.1882,4.6776,1.8567,9.5879,4.0009,14.7793,6.5118L136.3938,74.6l1.678-1.6132,1.6768-1.613.8149-.7773c-14.3763-8.0887-6.9628-24.1581-4.8425-28.1053.2976-.5651.5061-.8851.5061-.8851s-1.4731-.41-4.0715-1.0145c-16.8183-3.9147-80.3526-16.2657-90.6962,17.554C38.397,68.1505,36.7866,71.4831,37.64,71.6818c1.9641.4572,16.7538-15.6,56.2736-6.3673a154.8787,154.8787,0,0,1,17.012,5.0942C111.759,70.7023,112.5919,70.9972,113.4488,71.33ZM98.8,44.0186c12.9-3.4849,25.7944,1.4312,26.3374,1.6421a.8695.8695,0,0,1,.49,1.1367l-1.7974,4.4238a.8679.8679,0,0,1-.6372.5249.8469.8469,0,0,1-.1675.0166.8684.8684,0,0,1-.6211-.2617c-2.5488-2.6074-17.8188-5.0581-23.4873-5.7827a.8683.8683,0,0,1-.1167-1.7Zm-42.64,15.1489a.8687.8687,0,0,1-.5547-1.6465c14.874-5.0107,36.49-9.3584,54.9956-1.605,11.1553,4.6733,15.8208,11.459,16.0142,11.7456a.8686.8686,0,0,1-1.44.9717C124.9939,68.3672,106.529,42.1944,56.1594,59.1675Z" style="fill:#fff"/></svg>