<svg id="Layer_1" data-name="Layer 1" xmlns="http://www.w3.org/2000/svg" viewBox="0 0 226.7219 202.2314"><title>Activities Icons-Culture-07</title><path d="M112.1218,115.1676l1.3955-2.0469a93.2682,93.2682,0,0,0,12.0986-29.87A86.8036,86.8036,0,0,0,113.54,15.97l-1.293-2.0029-1.4121,1.9209c-.3428.4658-8.4385,11.6152-12.5645,29.2275-3.81,16.2656-4.7324,41.2607,12.5078,67.9707ZM101.44,45.9967a88.3405,88.3405,0,0,1,10.6807-26.1006,83.4938,83.4938,0,0,1,10.3145,62.5166,95.7448,95.7448,0,0,1-10.2891,26.668C97.0094,84.235,97.9137,61.16,101.44,45.9967Z" style="fill:#fff"/><path d="M133.1052,113.735l1.8682-1.5957c.3672-.3135,36.56-31.9121,21.1982-79.0273l-.7324-2.248-1.8525,1.4707A72.4219,72.4219,0,0,0,136.902,53.3551c-6.6719,12.3965-12.8779,32.5283-4.5586,58.0439Zm20.6875-77.1826c10.9141,37.5527-12.2129,64.375-19.1,71.3174C123.3356,68.9538,146.8659,43.1159,153.7927,36.5524Z" style="fill:#fff"/><path d="M185.0876,60.88l-.27-2.3486L182.71,59.6022c-35.15,17.8643-32.5654,56.0137-32.5352,56.3965l.1934,2.4492,2.19-1.1133C189,98.8141,185.1315,61.2565,185.0876,60.88Zm-31.6758,52.2764c.1357-8.3564,2.6855-34.915,28.5605-49.4336C182.194,71.8805,180.6305,97.9538,153.4118,113.1559Z" style="fill:#fff"/><path d="M88.5885,112.1393l1.8682,1.5957.7617-2.3359c8.3193-25.5156,2.1123-45.6475-4.56-58.0439A72.4219,72.4219,0,0,0,69.9743,32.3346l-1.8525-1.4707-.7324,2.248C52.029,80.2272,88.2214,111.8258,88.5885,112.1393Zm-18.82-75.5869c6.9268,6.5635,30.457,32.4014,19.1006,71.3174C81.98,100.9254,58.8561,74.1032,69.7682,36.5524Z" style="fill:#fff"/><path d="M40.8522,59.6022l-2.1084-1.0713-.27,2.3486c-.0439.377-3.9131,37.9346,32.5283,56.4551l2.19,1.1133.1934-2.4492C73.4167,115.6159,76.0026,77.4664,40.8522,59.6022Zm.7373,4.12c25.874,14.5186,28.4238,41.0771,28.56,49.4336C42.93,97.9538,41.3669,71.8805,41.59,63.7223Z" style="fill:#fff"/><path d="M120.4219,139.7918s12.2026,12.9079,26.1036,0C146.5255,139.7918,133.8313,127.34,120.4219,139.7918Z" style="fill:#fff"/><path d="M109.0213,139.4968s-13.35-12.1569-26.0879.59C82.9335,140.0868,95.8165,152.7111,109.0213,139.4968Z" style="fill:#fff"/><path d="M83.666,162.5286c0,24.6667,10,27,10,27s25.3334-.3333,38-.3333,11.3334-26.6667,11.3334-26.6667Zm10.3529,12.93a3,3,0,1,1,3-3A3,3,0,0,1,94.0189,175.4583Zm19.6471,11.3223a3,3,0,1,1,3-3A3,3,0,0,1,113.666,186.7805Zm-12.9109-14.4529c13.4094-8.0324,26.1036,0,26.1036,0A25.0357,25.0357,0,0,1,100.7551,172.3277Zm33.0952,3.1306a3,3,0,1,1,3-3A3,3,0,0,1,133.85,175.4583Z" style="fill:#fff"/><circle cx="113.666" cy="122.9303" r="3" style="fill:#fff"/><circle cx="113.666" cy="131.1803" r="3" style="fill:#fff"/><circle cx="113.666" cy="139.2278" r="3" style="fill:#fff"/><circle cx="113.666" cy="147.2558" r="3" style="fill:#fff"/><circle cx="121.8799" cy="155.4697" r="3" style="fill:#fff"/><circle cx="105.9717" cy="155.4697" r="3" style="fill:#fff"/><circle cx="113.666" cy="155.5286" r="3" style="fill:#fff"/></svg>