<svg id="Layer_1" data-name="Layer 1" xmlns="http://www.w3.org/2000/svg" viewBox="0 0 210.6413 134.2925"><title>Activities Icons</title><path d="M115.854,73.5527H75.8652a9.658,9.658,0,0,0-2.4144.3163,9.1576,9.1576,0,0,0-7.3346,13.4151l12.4653,23.5737a9.1,9.1,0,0,0,5.4063,4.4658,9.2411,9.2411,0,0,0,2.7261.4141,9.08,9.08,0,0,0,4.2559-1.0615,9.1761,9.1761,0,0,0,3.8184-12.3877L89.9819,93.2H115.854a9.7158,9.7158,0,0,0,9.7051-9.7046v-.2378A9.7158,9.7158,0,0,0,115.854,73.5527Z" style="fill:#fff"/><path d="M68.3686,66.7949a18.6076,18.6076,0,0,0-1.2314-6.6232c2.5865-3.6015,5.2637-6.3731,7.2783-7.39a2.1758,2.1758,0,0,1,1.6055-.32.661.661,0,0,1,.45.4951c.3337,1.27-1.0037,4.01-2.6843,6.6459A17.9127,17.9127,0,0,0,70.625,63.13l-.3267.5083.1753.5786a11.677,11.677,0,0,0,11.064,8.1245h41.6V56.4238h-41.6a10.41,10.41,0,0,0-4.1541.8956c.8466-1.7994,1.3634-3.5706,1.0222-4.87a2.65,2.65,0,0,0-1.6421-1.8442,3.9119,3.9119,0,0,0-3.25.3911c-2.2018,1.1116-4.81,3.7321-7.314,7.0745a18.7447,18.7447,0,0,0-1.6409-2.5534,2.1814,2.1814,0,0,0,.2478-2.1309L64.664,53.05a2.1884,2.1884,0,0,0-2.8657-1.1577l-.5453.2314A18.6943,18.6943,0,0,0,31.0818,64.2745L27.8286,65.54l.0674.749c.1631,1.8086,1.1855,10.835,5.3115,10.91.0679.001.1343.0015.2017.0015.218,0,.4282-.0146.64-.0272a18.7063,18.7063,0,0,0,8.3031,6.8707,6.3575,6.3575,0,0,0-.66,2.8107l.1851.5405.56.1152a11.25,11.25,0,0,1,1.8975.6548,14.38,14.38,0,0,0,2.1357.7286c.5437,4.6335,1.3264,7.7321,3.354,8.7973a3.6222,3.6222,0,0,0,1.7158.4048c1.542,0,3.3877-.7925,5.6606-2.0166,4.104-2.21,3.3315-4.958,2.437-8.1406a27.99,27.99,0,0,1-1.0037-4.7062A18.66,18.66,0,0,0,68.3686,66.7949Zm52.1523,2.93H81.5376a8.9451,8.9451,0,0,1-8.3428-5.6919c1.042-1.3682,4.1958-4.9932,8.3428-4.9932H120.521ZM62.1023,52.8494l.0864-.0367a1.1894,1.1894,0,0,1,1.5551.6281l.1429.3365a1.1942,1.1942,0,0,1-.6282,1.5551l-1.0562.4484-8.2739,3.5129c-.179-.309-.353-.603-.5159-.8672-.1418-.23-.2758-.4428-.3979-.6323-.249-.3865-.441-.6689-.5645-.8467L60.0524,53.72ZM32.8264,75.069c-1.359-.7466-2.46-4.8531-2.86-8.2146l.9413-.3663,2.04-.7939,17.4539-6.792.7566-.2944c.3771.5749.8269,1.3066,1.2778,2.1158,1.3114,2.3538,2.63,5.3717,2.188,7.1591a1.5631,1.5631,0,0,1-.8521,1.0923c-6.8716,3.5-10.4985,1.1665-10.6406,1.0713l-.875-.6108-.5527.9126a10.9918,10.9918,0,0,1-6.6251,4.6925,8.5754,8.5754,0,0,1-1.8348.1591A.9123.9123,0,0,1,32.8264,75.069ZM49.63,50.0566a16.6346,16.6346,0,0,1,9.496,2.97l-7.5111,3.1889a2.1907,2.1907,0,0,0-.3992.2238L33.2308,63.4383A16.7667,16.7667,0,0,1,49.63,50.0566Zm-13.389,26.759a13.0016,13.0016,0,0,0,6.6381-4.6633c1.6929.7158,5.7393,1.6914,11.8-1.395a3.57,3.57,0,0,0,1.8862-2.394c.5878-2.3735-.8005-5.702-2.1464-8.1914l8.4459-3.5858a16.7407,16.7407,0,0,1,2.01,3.3339,54.6565,54.6565,0,0,0-7.6168,15.8607,21.3428,21.3428,0,0,0-.7163,6.26,16.73,16.73,0,0,1-4.2428,1.2614,30.169,30.169,0,0,0-1.8378-2.6489c-1.4175-1.7217-2.6436-2.4966-3.7456-2.355-.9453.1167-1.8325.8569-2.7124,2.2632a16.7529,16.7529,0,0,0-.863,1.64A16.7074,16.7074,0,0,1,36.2413,76.8156Zm15.1874,8.9666c-.2739.1089-.5991.2417-.9819.3979-.7515.3076-2.0093.8218-2.2783.875a6.4254,6.4254,0,0,1-3.0771-.74c-.4131-.1694-.834-.3418-1.2651-.4883.1-.319.2334-.6948.3881-1.0954.2681-.6943.6036-1.465.9612-2.1706.6119-1.2076,1.2853-2.2162,1.7855-2.278.5448-.0684,1.7158,1.2308,2.7588,2.6887a21.1239,21.1239,0,0,1,1.5508,2.49C51.3274,85.5723,51.3818,85.6811,51.4287,85.7822ZM57.7114,88.48c.8721,3.104,1.2334,4.3887-1.46,5.8389-2.9585,1.5933-4.6025,2.0723-5.498,1.6016-1.281-.6727-1.8751-3.7424-2.2585-6.895a18.1991,18.1991,0,0,0,2.7092-.9947c.627-.2563,1.4863-.6079,1.6821-.6567l.5542-.125.1763-.54a2.535,2.535,0,0,0-.312-1.5391,18.7369,18.7369,0,0,0,3.4246-1.0237A32.1509,32.1509,0,0,0,57.7114,88.48Zm.8284-7.5037a19.6522,19.6522,0,0,1,.6536-4.6911,50.5444,50.5444,0,0,1,6.531-14.0375A16.6791,16.6791,0,0,1,58.54,80.9767Z" style="fill:#fff"/><path d="M170.2363,96.9492a9.1913,9.1913,0,0,0-5.8286-11.58h0l-7.5634-2.499,6.9144-3.4575a9.1667,9.1667,0,1,0-8.2-16.3975L131.709,74.9419a9.1784,9.1784,0,0,0-4.6533,10.8917,9.18,9.18,0,0,0,6.28,8.5775l25.32,8.3662a9.1916,9.1916,0,0,0,11.58-5.8281Z" style="fill:#fff"/><path d="M44.8349,17.0377a27.0225,27.0225,0,0,0,13.2295-3.1,25.0251,25.0251,0,0,1,12.38-2.91,25.0251,25.0251,0,0,1,12.38,2.91,27.0225,27.0225,0,0,0,13.2295,3.1,27.0262,27.0262,0,0,0,13.23-3.1,25.0272,25.0272,0,0,1,12.38-2.91,25.0283,25.0283,0,0,1,12.3823,2.91,27.04,27.04,0,0,0,13.2319,3.0991,27.0334,27.0334,0,0,0,13.2319-3.1,25.0336,25.0336,0,0,1,12.3818-2.91v-2a27.0389,27.0389,0,0,0-13.2314,3.0991,25.0283,25.0283,0,0,1-12.3823,2.91,25.0283,25.0283,0,0,1-12.3823-2.91A27.04,27.04,0,0,0,121.664,9.0285a27.0324,27.0324,0,0,0-13.23,3.0991,25.0213,25.0213,0,0,1-12.38,2.91,25.0251,25.0251,0,0,1-12.38-2.91,27.0225,27.0225,0,0,0-13.2295-3.1,27.0225,27.0225,0,0,0-13.2295,3.1,25.0251,25.0251,0,0,1-12.38,2.91,25.0251,25.0251,0,0,1-12.38-2.91,27.0225,27.0225,0,0,0-13.2295-3.1v2a25.0251,25.0251,0,0,1,12.38,2.91A27.0225,27.0225,0,0,0,44.8349,17.0377Z" style="fill:#fff"/><path d="M174.33,99.4209a1,1,0,0,0-1.9131.35c-.0649,1.1831-.6475,4.7329-2.4155,5.5-1.3862.6011-3.3232-.6538-4.7046-1.812a1,1,0,0,0-1.6421.8032l.8486,22.8071a1,1,0,0,0,1.7632.6084c.8374-.99,3.6377-3.7432,5.4863-3.4043.7271.1323,1.3169.8188,1.7524,2.041a1,1,0,0,0,.75.6455.986.986,0,0,0,.938-.3164,7.1005,7.1005,0,0,1,4.4458-2.1787,6.2125,6.2125,0,0,1,4.5376,1.9712,1,1,0,0,0,1.6-1.1323Zm5.2217,23.0449a8.5672,8.5672,0,0,0-4.7632,1.8643,3.8829,3.8829,0,0,0-2.6807-2.0259c-2.0483-.374-4.23,1.0981-5.6914,2.3853l-.686-18.439c1.9214,1.1938,3.6206,1.4819,5.0669.8545a6.0582,6.0582,0,0,0,3.0054-3.9321l8.769,19.8262A7.0994,7.0994,0,0,0,179.5513,122.4658Z" style="fill:#fff"/><path d="M197.6245,79.2773l-26.728-9.3013a1,1,0,0,0-1.05,1.6367c.82.855,3.0166,3.7036,2.3706,5.519-.5068,1.4224-2.7466,1.9819-4.5361,2.2012a1,1,0,0,0-.5332,1.7485L184.394,96.0293a1,1,0,0,0,1.6479-.8735c-.1519-1.2876-.2461-5.2148,1.2563-6.3325.5938-.4409,1.4971-.4028,2.688.1123A1.0013,1.0013,0,0,0,191.38,87.93a7.18,7.18,0,0,1,1.4526-4.7515A6.2289,6.2289,0,0,1,197.36,81.22a1,1,0,0,0,.2646-1.9424Zm-6.3228,2.6133a8.5676,8.5676,0,0,0-1.8892,4.7539,3.8764,3.8764,0,0,0-3.31.5757c-1.67,1.2441-2.0854,3.8413-2.1416,5.7871l-13.9434-12.085c2.1841-.5889,3.5542-1.6343,4.083-3.12a6.0563,6.0563,0,0,0-.8223-4.88l20.4746,7.125A7.0914,7.0914,0,0,0,191.3017,81.8906Z" style="fill:#fff"/><path d="M77.5588,19.2a5,5,0,1,0-5,5A5.0056,5.0056,0,0,0,77.5588,19.2Zm-9,0a4,4,0,1,1,4,4A4,4,0,0,1,68.5588,19.2Z" style="fill:#fff"/><path d="M75.8922,31.533A2.3333,2.3333,0,1,0,73.5588,29.2,2.336,2.336,0,0,0,75.8922,31.533Zm0-3.6667A1.3333,1.3333,0,1,1,74.5588,29.2,1.3334,1.3334,0,0,1,75.8922,27.8663Z" style="fill:#fff"/><path d="M66.3922,30.2a4.5,4.5,0,1,0,4.5,4.5A4.5051,4.5051,0,0,0,66.3922,30.2Zm0,8a3.5,3.5,0,1,1,3.5-3.5A3.5,3.5,0,0,1,66.3922,38.2Z" style="fill:#fff"/><path d="M67.5588,42.533a2.3333,2.3333,0,1,0,2.3334,2.3333A2.3359,2.3359,0,0,0,67.5588,42.533Zm0,3.6667a1.3333,1.3333,0,1,1,1.3334-1.3334A1.3333,1.3333,0,0,1,67.5588,46.2Z" style="fill:#fff"/><path d="M174.042,81.0068a.9993.9993,0,0,0,.3237,1.3765l7,4.333a1,1,0,1,0,1.0527-1.7l-7-4.333A1,1,0,0,0,174.042,81.0068Z" style="fill:#fff"/><path d="M176.2148,79.1386l10,3.6665a1,1,0,1,0,.6885-1.8779l-10-3.6665a1,1,0,0,0-.6885,1.8779Z" style="fill:#fff"/><path d="M168.4224,108.8754a1.0005,1.0005,0,0,0-.854,1.1274l1.333,9.667a1,1,0,0,0,.9893.8633,1.0159,1.0159,0,0,0,.1382-.0093,1.0005,1.0005,0,0,0,.854-1.1274l-1.333-9.667A1.0047,1.0047,0,0,0,168.4224,108.8754Z" style="fill:#fff"/><path d="M172.9678,108.9a1,1,0,0,0-.7085,1.2241l2.6665,10a1,1,0,0,0,1.9326-.5156l-2.6665-10A.9985.9985,0,0,0,172.9678,108.9Z" style="fill:#fff"/></svg>