<svg id="Layer_1" data-name="Layer 1" xmlns="http://www.w3.org/2000/svg" viewBox="0 0 207.4343 166.7006"><title>Activities Icons</title><path d="M162.2852,112.28a27.04,27.04,0,0,1-13.2319-3.0991,27.7956,27.7956,0,0,0-24.7627,0,27.0262,27.0262,0,0,1-13.23,3.1,27.0225,27.0225,0,0,1-13.2295-3.1,25.0251,25.0251,0,0,0-12.38-2.91,25.0251,25.0251,0,0,0-12.38,2.91,27.0225,27.0225,0,0,1-13.2295,3.1,27.0225,27.0225,0,0,1-13.2295-3.1,25.0251,25.0251,0,0,0-12.38-2.91v-2a27.0225,27.0225,0,0,1,13.2295,3.1,25.0251,25.0251,0,0,0,12.38,2.91,25.0251,25.0251,0,0,0,12.38-2.91,27.0225,27.0225,0,0,1,13.2295-3.1,27.0225,27.0225,0,0,1,13.2295,3.1,25.0251,25.0251,0,0,0,12.38,2.91,25.0213,25.0213,0,0,0,12.38-2.91,29.7928,29.7928,0,0,1,26.4619,0,27.7976,27.7976,0,0,0,24.7646,0,27.0389,27.0389,0,0,1,13.2314-3.0991v2a25.0336,25.0336,0,0,0-12.3818,2.91A27.0334,27.0334,0,0,1,162.2852,112.28Z" style="fill:#fff"/><path d="M34.5656,82.1082a1,1,0,0,1-.7046-1.7095l70.3335-69.8335a1,1,0,0,1,1.4092,1.4189L35.27,81.8177A.9956.9956,0,0,1,34.5656,82.1082Z" style="fill:#fff"/><path d="M43.097,82.0457A2.8646,2.8646,0,1,1,40.2324,84.91a2.8679,2.8679,0,0,1,2.8646-2.8646m0-2A4.8646,4.8646,0,1,0,47.9616,84.91a4.8646,4.8646,0,0,0-4.8646-4.8646Z" style="fill:#fff"/><path d="M9.9625,108.7156a2.7832,2.7832,0,0,1-1.9692-4.752L30.9855,80.971a2.7846,2.7846,0,1,1,3.938,3.938L11.9313,107.9012A2.7756,2.7756,0,0,1,9.9625,108.7156ZM32.9547,81.7249a1.2125,1.2125,0,0,0-.86.3555L9.1027,105.0731a1.2155,1.2155,0,0,0,1.7192,1.7188L33.8141,83.8a1.2151,1.2151,0,0,0-.8594-2.0747Z" style="fill:#fff"/><path d="M175.3165,131.43C173.32,82.94,126.3751,28.21,107.8229,20.9686c-1.7749-.6929-4.1533-1.2573-5.4038-.0068L43.9352,79.4456l-.707-.707L101.712,20.2547c1.311-1.31,3.49-1.3833,6.4746-.2178,18.7285,7.31,66.1172,62.4917,68.1294,111.3516Z" style="fill:#fff"/><path d="M174.7028,143.8626c-1.38,0-2.2378-2.3682-2.2378-6.1812a.5.5,0,0,1,1,0c0,3.9058.9209,5.1812,1.2378,5.1812.2358,0,.8008-.8164.8008-2.8379v-5.6665a.5.5,0,0,1,1,0v5.6665C176.5036,142.3563,175.7965,143.8626,174.7028,143.8626Z" style="fill:#fff"/><polygon points="173.135 140.944 170.854 141.157 172.954 137.538 173.135 140.944" style="fill:#fff"/><path d="M170.8541,141.6566a.5.5,0,0,1-.4326-.751l2.1-3.6187a.5.5,0,0,1,.9321.2246l.1807,3.4058a.5007.5007,0,0,1-.4531.5244l-2.2808.2129C170.8849,141.6561,170.8693,141.6566,170.8541,141.6566Zm1.69-2.4155-.7705,1.3276.8364-.0781Z" style="fill:#fff"/><circle cx="175.8369" cy="132.7749" r="1.5" style="fill:#fff"/><path d="M175.8366,134.7747a2,2,0,1,1,2-2A2.0019,2.0019,0,0,1,175.8366,134.7747Zm0-3a1,1,0,1,0,1,1A1.0009,1.0009,0,0,0,175.8366,131.7747Z" style="fill:#fff"/><path d="M144.0179,152.8981c7.8472-2.0534,15.04-6.1255,20.0566-13.4863-1.579-.2448-3.6486-.2278-4.9679,1.0914a.5.5,0,0,1-.707,0c-.1953-.1953-.5137-.83-.3184-1.0254,1.5448-1.5459,3.8-1.65,5.5636-1.4158-1.6238-3.879-7.4346-15.6346-21.311-17.5514C139.4055,125.4319,133.8162,138.3018,144.0179,152.8981Zm5.9852-21.5358a4.0375,4.0375,0,1,1-4.0375,4.0375A4.0421,4.0421,0,0,1,150.0031,131.3623Z" style="fill:#fff"/><circle cx="150.0031" cy="135.3999" r="2.3375" style="fill:#fff"/><path d="M136.9215,128.95a33.0431,33.0431,0,0,1,3.2538-8.6512c-.1153-.0067-.226-.02-.3422-.025a131.6948,131.6948,0,0,0-34.561,3.3345,8.8449,8.8449,0,0,1-1.519.2915c-2.0659,0-9.9468-.855-14.5288-1.373,1.4092,1.478,1.897,2.8428,1.4868,4.13-.6934,2.1772-3.9526,3.5786-9.9644,4.2856a73.9353,73.9353,0,0,1-8.2529.4575,1.007,1.007,0,0,1-.1382-.0107,45.642,45.642,0,0,1-13.1948-4.3843c2.9448,4.0327,5.7959,8.9565,5.5908,12.7a51.3431,51.3431,0,0,1-1.6836,9.6138A23.2926,23.2926,0,0,1,81.1,140.7752c5.2173-.1851,7.3589,9.2065,8.09,13.7534,1.6479-1.7476,4.4766-4.14,7.61-4.14.1309,0,.2612.0044.3931.0127a40.1279,40.1279,0,0,1,4.2661.8042c8.3283,1.7913,25.3451,5.4422,40.4879,2.1841C135.54,143.8012,135.5977,134.9222,136.9215,128.95ZM130.75,140.1112l-20.4707,9.3682a1,1,0,0,1-1.2891-1.397c.6665-1.1948,2.1831-4.7012,1.2144-6.5566a2.906,2.906,0,0,0-2.5229-1.3286,1,1,0,1,1,.1992-1.99,4.79,4.79,0,0,1,4.0986,2.3965c.9468,1.8179.48,4.186-.1377,5.9619l18.0762-8.2725a1,1,0,0,1,.832,1.8184Z" style="fill:#fff"/><path d="M164.8118,138.2721c.5059.1161.9166.24,1.1832.3291-.3087-.9132-5.8145-17.0812-22.4509-19.9365-.1483.2012-.3661.5107-.632.9176C157.8715,121.8712,163.5877,135.0792,164.8118,138.2721Z" style="fill:#fff"/><path d="M144.6156,153.72c.195.2646.3922.53.5978.7952,8.2314-2.2651,15.7781-6.6709,20.9323-14.595-.18-.0624-.5321-.1766-1.0058-.2937C160.05,147.2993,152.67,151.557,144.6156,153.72Z" style="fill:#fff"/><path d="M97.1281,151.4c-4.5-.2917-8.625,5.5-8.625,5.5s-1.6151-15.2885-7.375-15.125c-17.625.5-21.873,16.867-21.625,15.875.254-1.016,3.85-10.6865,4.25-18,.3023-5.527-6.842-14.1728-9.997-17.7062a18.3025,18.3025,0,0,1-1.4613-1.5855s.5727.59,1.4613,1.5855c6.8874,6.6864,18.747,8.4562,18.747,8.4562s27.1667.25,13.5-9.25c0,0,14.875,1.75,17.75,1.75.7144,0,16.75-4.5,36.125-3.625.2878.013.563.0429.845.0638.2158-.3625.4152-.6821.5948-.9576-.46-.0424-.92-.084-1.3949-.1054a133.7157,133.7157,0,0,0-35.0874,3.3809c-.6089.1362-1.0015.2275-1.0825.2432-2.7842,0-17.4849-1.7256-17.6333-1.7432a1.0166,1.0166,0,0,0-1.0518.6387,1.0008,1.0008,0,0,0,.3643,1.1758c3.4526,2.4,3.5088,3.6519,3.373,4.0786-.46,1.4448-5.8218,3.4448-16.22,3.3506-.9385-.1519-11.7026-2.0161-18.0391-8.0776-.8516-.9536-1.4316-1.5552-1.5342-1.6606a1,1,0,0,0-1.4937,1.3267,19.4158,19.4158,0,0,0,1.5449,1.6841c3.106,3.4883,9.9707,11.81,9.6909,16.9224-.3257,5.9575-2.8672,13.6577-3.8237,16.5566-.21.6382-.353,1.0757-.3979,1.2554a1.0415,1.0415,0,0,0,.6812,1.2461.8848.8848,0,0,0,.25.0356,1.087,1.087,0,0,0,.9976-.7378c.8184-2.4595,5.6611-14.75,20.6943-15.1768.0205,0,.041-.001.0615-.001,3.9009,0,5.8975,10.5239,6.2905,14.2319a1,1,0,0,0,1.8091.4746c1.0576-1.4854,4.5059-5.3115,7.7456-5.082.6108.04,2.0957.3589,3.9751.7632,7.8569,1.69,25.9757,5.5755,42.0757,1.8831-.1994-.2689-.4147-.539-.6037-.8069C123.0527,158.5558,100.5823,151.6238,97.1281,151.4Z" style="fill:#fff"/><path d="M144.0179,152.8981c.191.2732.3956.5477.5977.822,8.0539-2.1631,15.4347-6.4209,20.5243-14.0936-.313-.0774-.6723-.1539-1.0654-.2148C159.0579,146.7726,151.8651,150.8447,144.0179,152.8981Z" style="fill:#fff"/><path d="M101.4586,151.2059a40.1279,40.1279,0,0,0-4.2661-.8042c-.1318-.0083-.2622-.0127-.3931-.0127-3.1333,0-5.9619,2.3921-7.61,4.14-.731-4.5469-2.8726-13.9385-8.09-13.7534a23.2926,23.2926,0,0,0-18.0317,8.543,51.3431,51.3431,0,0,0,1.6836-9.6138c.2051-3.7432-2.646-8.667-5.5908-12.7a45.642,45.642,0,0,0,13.1948,4.3843,1.007,1.007,0,0,0,.1382.0107,73.9353,73.9353,0,0,0,8.2529-.4575c6.0117-.707,9.271-2.1084,9.9644-4.2856.41-1.2871-.0776-2.6519-1.4868-4.13,4.582.5181,12.4629,1.373,14.5288,1.373a8.8449,8.8449,0,0,0,1.519-.2915,131.6948,131.6948,0,0,1,34.561-3.3345c.1163.0052.2269.0184.3422.025.19-.3478.3731-.6666.5477-.96-.2819-.0209-.5572-.0508-.845-.0638-19.375-.875-35.4106,3.625-36.125,3.625-2.875,0-17.75-1.75-17.75-1.75,13.6667,9.5-13.5,9.25-13.5,9.25s-11.86-1.77-18.747-8.4562c3.155,3.5334,10.2993,12.1791,9.997,17.7062-.4,7.3135-3.996,16.984-4.25,18-.248.992,4-15.375,21.625-15.875,5.76-.1635,7.375,15.125,7.375,15.125s4.125-5.7917,8.625-5.5c3.4542.2239,25.9246,7.1559,45.3821,2.8372-.2-.2837-.3749-.5646-.5637-.8471C126.8037,156.6481,109.7869,152.9972,101.4586,151.2059Z" style="fill:#fff"/><path d="M53.7561,121.9437c-.8886-.9952-1.4613-1.5855-1.4613-1.5855A18.3025,18.3025,0,0,0,53.7561,121.9437Z" style="fill:#fff"/><path d="M142.9121,119.5823c-.1755.2685-.3687.5759-.5783.9283,13.8763,1.9168,19.6872,13.6724,21.311,17.5514.423.0562.8175.13,1.1671.21C163.5877,135.0792,157.8715,121.8712,142.9121,119.5823Z" style="fill:#fff"/></svg>