<svg id="Layer_1" data-name="Layer 1" xmlns="http://www.w3.org/2000/svg" viewBox="0 0 227 223"><defs><style>.cls-1{fill:none;}.cls-2{fill:#fff;}</style></defs><title>Service Icons-</title><polygon class="cls-1" points="216.07 102.67 214.76 93.54 213.33 93.54 213.33 102.67 216.07 102.67"/><polygon class="cls-1" points="213.29 103.86 213.29 118.96 221.03 118.96 221.03 119 221.89 119 221.89 103.82 217.43 103.82 217.44 103.86 213.29 103.86"/><path class="cls-1" d="M144.7,138.12H91.27a3.56,3.56,0,0,1-3.55-3.54V131H84.13L82,120.14h-37L42.75,131H23.47L27,146.1H39.69l.06.53a23.84,23.84,0,0,0,47.38,0l.06-.53h61.08l.06.53a23.84,23.84,0,0,0,47.38,0l.06-.53h21.41l2.54-26h-6.39V131H192.71l-2.17-10.86h-37L151.33,131h-3.08v3.58A3.56,3.56,0,0,1,144.7,138.12ZM63.44,156.81A12.83,12.83,0,1,1,76.27,144,12.85,12.85,0,0,1,63.44,156.81ZM172,131.15A12.83,12.83,0,1,1,159.19,144,12.85,12.85,0,0,1,172,131.15Z"/><path class="cls-1" d="M26.2,70.82a7.75,7.75,0,0,0-2.15-5.45,7.21,7.21,0,0,0-5.21-2.29h-.06a7.25,7.25,0,0,0-5.2,2.21,7.75,7.75,0,0,0-2.22,5.42L11.12,103a7.72,7.72,0,0,0,2.14,5.45,7.21,7.21,0,0,0,5.22,2.29h.06A7.56,7.56,0,0,0,26,103.13Z"/><path class="cls-2" d="M44,119h39l2.17,10.86h2.64a3.55,3.55,0,0,1,3.53-3.36H144.7a3.55,3.55,0,0,1,3.53,3.36h2.13L152.53,119h39l2.17,10.86h18.47V119h0v-15.1h0V92.36h.59V87H180.16s-9.58-27-12.68-30.08-9.16-3.55-9.16-3.55H28.58l-.29,76.47H41.78Zm152-2.47a.59.59,0,0,1,.59-.59H208a.6.6,0,0,1,.6.59v3.45a.6.6,0,0,1-.6.6H196.57a.59.59,0,0,1-.59-.6ZM128.43,67.35a7.52,7.52,0,0,1,7.49-7.5h17.22a12.26,12.26,0,0,1,10.4,6.92l6.5,15.5c1.59,3.8-.48,6.92-4.6,6.92H135.92a7.52,7.52,0,0,1-7.49-7.5ZM81.29,68.68a8.26,8.26,0,0,1,8.23-8.23H112a8.25,8.25,0,0,1,8.22,8.23V81.56A8.25,8.25,0,0,1,112,89.78H89.52a8.25,8.25,0,0,1-8.23-8.22ZM36.65,81.15V67.89a8.06,8.06,0,0,1,8-8H65.76a8.07,8.07,0,0,1,8,8V81.15a8.07,8.07,0,0,1-8,8H44.68A8.06,8.06,0,0,1,36.65,81.15Z"/><path class="cls-2" d="M63.44,132.38A11.6,11.6,0,1,0,75,144,11.61,11.61,0,0,0,63.44,132.38Z"/><path class="cls-2" d="M63.44,131.15A12.83,12.83,0,1,0,76.27,144,12.85,12.85,0,0,0,63.44,131.15Zm0,25.64A12.81,12.81,0,1,1,76.25,144,12.83,12.83,0,0,1,63.44,156.79Z"/><path class="cls-2" d="M63.44,132.36A11.62,11.62,0,1,0,75.07,144,11.63,11.63,0,0,0,63.44,132.36Zm0,23.22A11.6,11.6,0,1,1,75,144,11.61,11.61,0,0,1,63.44,155.58Z"/><rect class="cls-2" x="213.29" y="103.82" width="4.14" height="0.04"/><path class="cls-2" d="M217.27,102.71l-1.48-10.35h-3v10.35Zm-2.51-9.17,1.31,9.13h-2.74V93.54Z"/><polygon class="cls-2" points="212.15 103.86 212.18 103.86 212.18 102.71 212.74 102.71 212.74 92.36 212.15 92.36 212.15 103.86"/><rect class="cls-2" x="213.29" y="118.96" width="7.73" height="0.04"/><path class="cls-2" d="M212.74,130.41H193.19L191,119.55H153l-2.17,10.86h-2.6V131h3.08l2.17-10.86h37L192.71,131h20.62V120.14h6.39l-2.54,26H195.77l-.06.53a23.84,23.84,0,0,1-47.38,0l-.06-.53H87.19l-.06.53a23.84,23.84,0,0,1-47.38,0l-.06-.53H27L23.47,131H42.75l2.17-10.86H82L84.13,131h3.59v-.59H84.61l-2.17-10.86h-38l-2.17,10.86h-14v-.59H22L26,147.29h12.6a25,25,0,0,0,49.6,0h59a25,25,0,0,0,49.6,0h21.43l2.67-27.19h-8.18Z"/><path class="cls-2" d="M42.27,130.41l2.17-10.86h38l2.17,10.86h3.11V130c0-.07,0-.13,0-.19H85.1L82.93,119H44l-2.17,10.86H28.29v.59Z"/><path class="cls-2" d="M212.18,119h0v10.86H193.68L191.51,119h-39l-2.17,10.86h-2.13c0,.06,0,.12,0,.19v.4h2.6L153,119.55h38l2.17,10.86h19.55V120.1h-.56Z"/><path class="cls-2" d="M63.44,131.17A12.81,12.81,0,1,0,76.25,144,12.83,12.83,0,0,0,63.44,131.17Zm0,25A12.22,12.22,0,1,1,75.66,144,12.22,12.22,0,0,1,63.44,156.2Z"/><path class="cls-2" d="M63.44,131.77A12.22,12.22,0,1,0,75.66,144,12.21,12.21,0,0,0,63.44,131.77Zm0,23.83A11.62,11.62,0,1,1,75.07,144,11.63,11.63,0,0,1,63.44,155.6Z"/><path class="cls-2" d="M172,155.58a11.6,11.6,0,1,0-11.6-11.6A11.61,11.61,0,0,0,172,155.58Z"/><path class="cls-2" d="M172,156.81A12.83,12.83,0,1,0,159.19,144,12.85,12.85,0,0,0,172,156.81Zm0-25.64A12.81,12.81,0,1,1,159.21,144,12.83,12.83,0,0,1,172,131.17Z"/><path class="cls-2" d="M172,156.79A12.81,12.81,0,1,0,159.21,144,12.83,12.83,0,0,0,172,156.79Zm0-25A12.22,12.22,0,1,1,159.8,144,12.2,12.2,0,0,1,172,131.77Z"/><path class="cls-2" d="M172,155.6A11.62,11.62,0,1,0,160.4,144,11.63,11.63,0,0,0,172,155.6Zm0-23.22a11.6,11.6,0,1,1-11.6,11.6A11.61,11.61,0,0,1,172,132.38Z"/><path class="cls-2" d="M172,156.2A12.22,12.22,0,1,0,159.8,144,12.21,12.21,0,0,0,172,156.2Zm0-23.84A11.62,11.62,0,1,1,160.4,144,11.63,11.63,0,0,1,172,132.36Z"/><path class="cls-2" d="M27.13,103.14l.24-32.31a8.94,8.94,0,0,0-2.47-6.27,8.39,8.39,0,0,0-12.15-.09,9,9,0,0,0-2.57,6.23L9.94,103a9,9,0,0,0,2.47,6.27,8.42,8.42,0,0,0,6.06,2.66h.07A8.74,8.74,0,0,0,27.13,103.14Zm-8.59,7.62h-.06a7.21,7.21,0,0,1-5.22-2.29A7.72,7.72,0,0,1,11.12,103l.24-32.31a7.75,7.75,0,0,1,2.22-5.42,7.25,7.25,0,0,1,5.2-2.21h.06a7.21,7.21,0,0,1,5.21,2.29,7.75,7.75,0,0,1,2.15,5.45L26,103.13A7.56,7.56,0,0,1,18.54,110.76Z"/><path class="cls-2" d="M6.66,76.75c-1.3,0-2.4,1.56-2.42,3.5L4.05,94c0,1.94,1,3.54,2.33,3.56s2.4-1.56,2.43-3.5L9,80.31C9,78.37,8,76.77,6.66,76.75Z"/><rect class="cls-2" x="212.74" y="103.86" width="0.55" height="15.1"/><polygon class="cls-2" points="223 102.71 217.27 102.71 217.43 103.82 221.89 103.82 221.89 119 221.03 119 220.92 120.11 223 120.11 223 102.71"/><rect class="cls-2" x="212.18" y="103.86" width="0.55" height="15.1"/><polygon class="cls-2" points="212.74 103.86 213.29 103.86 213.29 103.82 217.43 103.82 217.27 102.71 212.74 102.71 212.74 103.86"/><rect class="cls-2" x="212.18" y="102.71" width="0.55" height="1.15"/><polygon class="cls-2" points="213.29 119 213.29 118.96 212.74 118.96 212.74 120.11 220.92 120.11 221.03 119 213.29 119"/><rect class="cls-2" x="212.18" y="118.96" width="0.55" height="1.15"/><path class="cls-2" d="M87.72,134.58a3.56,3.56,0,0,0,3.55,3.54H144.7a3.56,3.56,0,0,0,3.55-3.54V131H87.72Z"/><path class="cls-2" d="M144.7,126.46H91.27a3.55,3.55,0,0,0-3.53,3.36h60.49A3.55,3.55,0,0,0,144.7,126.46Z"/><polygon class="cls-2" points="87.72 130.41 87.72 131 148.25 131 148.25 130.41 117.73 130.41 87.72 130.41"/><path class="cls-2" d="M148.23,129.82H87.74c0,.06,0,.12,0,.19v.4h60.53V130C148.25,129.94,148.23,129.88,148.23,129.82Z"/></svg>