<svg id="Layer_1" data-name="Layer 1" xmlns="http://www.w3.org/2000/svg" viewBox="0 0 215 222"><defs><style>.cls-1{fill:none;}.cls-2{fill:#fff;}</style></defs><title>Service Icons-</title><path class="cls-1" d="M180.86,98.88H170l.21-22.38h36.72V69.38H134v60.13h11.45l13.1-13.71,25.22-.14,8.76,9.51a31.62,31.62,0,0,1,9.64,16h6.33V98.87h-27.6Z"/><polygon class="cls-1" points="171.54 97.33 180.86 97.33 180.86 84.87 198.87 78.03 171.73 78.03 171.54 97.33"/><polygon class="cls-1" points="126.24 82.07 5.29 82.07 5.29 86.95 130.91 86.95 130.91 82.07 128.62 82.07 128.62 82.07 126.24 82.07"/><polygon class="cls-1" points="130.85 89.01 8.68 89.01 15.57 105.5 53.13 124.22 67.65 114.54 105.19 114.54 114.23 129.35 129.82 129.35 130.85 129.35 130.85 89.01"/><polygon class="cls-2" points="132.43 87.15 132.43 80.28 128.02 80.28 128.62 82.07 130.91 82.07 130.91 86.95 5.29 86.95 5.29 82.07 126.24 82.07 14.19 81.88 14.91 80.28 3.5 80.28 3.5 88.73 6.54 88.73 5.88 87.15 132.43 87.15"/><polygon class="cls-2" points="67.65 114.54 53.13 124.22 15.57 105.5 8.68 89.01 130.85 89.01 130.85 129.35 129.82 129.35 129.82 130.28 131.02 130.28 131.02 129.51 132.43 129.51 132.43 88.73 6.54 88.73 14.12 106.86 52.69 126.08 51.61 125.23 67.65 114.54"/><polygon class="cls-2" points="132.43 87.15 5.88 87.15 6.54 88.73 132.43 88.73 132.43 87.15"/><path class="cls-2" d="M54.2,125.75l-.94.62-.57-.29,4.63,3.66c.19-.25.37-.51.56-.75Z"/><polygon class="cls-2" points="54.2 125.75 53.89 125.47 67.93 115.47 104.66 115.47 113.7 130.28 129.82 130.28 129.82 129.35 114.23 129.35 105.19 114.54 67.65 114.54 51.61 125.23 52.69 126.08 53.26 126.37 54.2 125.75"/><path class="cls-2" d="M210,97.33h-7.08v1.54h5.54v42.26h-6.33c.13.51.26,1,.37,1.54H210Z"/><polygon class="cls-2" points="169.99 98.87 180.86 98.87 180.86 97.33 171.54 97.33 171.73 78.03 198.87 78.03 202.91 76.49 170.2 76.49 169.99 98.87"/><path class="cls-2" d="M153,123l6.51-6.57,23.82-.09,5.67,6.12a29.85,29.85,0,0,1,3.49,2.74l-8.76-9.51-25.22.14-13.1,13.71h.81A31.86,31.86,0,0,1,153,123Z"/><polygon class="cls-2" points="132.7 87.15 132.72 87.15 132.72 129.51 133.96 129.51 133.96 69.38 206.93 69.38 206.93 76.49 202.92 76.49 202.92 78.03 208.46 78.03 208.46 67.84 132.43 67.84 132.43 80.28 132.7 80.28 132.7 87.15"/><rect class="cls-2" x="132.43" y="80.28" width="0.28" height="6.87"/><polygon class="cls-2" points="132.72 87.15 132.7 87.15 132.7 88.73 132.43 88.73 132.43 129.51 132.72 129.51 132.72 87.15"/><rect class="cls-2" x="132.43" y="87.15" width="0.28" height="1.58"/><rect class="cls-2" x="131.02" y="129.51" width="1.41" height="0.77"/><path class="cls-2" d="M145.65,130.28c.18-.26.38-.51.57-.77h-13.5v.77Z"/><rect class="cls-2" x="132.43" y="129.51" width="0.29" height="0.77"/><path class="cls-2" d="M132.72,131.05v.16h-.17v14.84h7.23a31.41,31.41,0,0,1,4.66-14l.29-1Z"/><path class="cls-2" d="M82.64,117.08A31.72,31.72,0,0,1,114.23,146L128,145.9V131.21H113.18l-9-14.81H68.21l-13.43,9,3.69,2.92A31.62,31.62,0,0,1,82.64,117.08Z"/><path class="cls-2" d="M155.08,121.61a31.67,31.67,0,0,1,12.75-4.33l-8.66,0Z"/><path class="cls-2" d="M131,147.59V131.21h-1.2v16.54l-15.5.09v0l25.37-.07c0-.07,0-.14,0-.22Z"/><path class="cls-2" d="M174.68,117.25a31.58,31.58,0,0,1,11.84,3.67l-3.46-3.71Z"/><polygon class="cls-2" points="54.78 125.36 54.78 125.36 68.21 116.4 54.78 125.36"/><rect class="cls-2" x="129.82" y="130.28" width="1.19" height="0.93"/><rect class="cls-2" x="132.55" y="131.05" width="0.16" height="0.16"/><path class="cls-2" d="M54.78,125.36l-.58.39L57.88,129c.2-.24.39-.48.59-.71Z"/><path class="cls-2" d="M128,145.9l-13.73.08c0,.61.07,1.24.09,1.86l15.5-.09V131.21H128Z"/><polygon class="cls-2" points="113.7 130.28 104.66 115.47 67.93 115.47 53.89 125.47 54.2 125.75 54.78 125.36 54.78 125.36 68.21 116.4 104.14 116.4 113.18 131.21 127.96 131.21 129.82 131.21 129.82 130.28 113.7 130.28"/><path class="cls-2" d="M183.33,116.31l-23.82.09L153,123c.67-.48,1.37-.93,2.08-1.36l4.09-4.28,8.66,0a34.35,34.35,0,0,1,3.54-.2,32.89,32.89,0,0,1,3.31.17l8.38,0,3.46,3.71c.85.46,1.68,1,2.48,1.51Z"/><path class="cls-2" d="M144.44,132.09c.21-.35.4-.7.63-1h-.34Z"/><path class="cls-2" d="M132.55,146.05V131.21H131v16.38h8.68c0-.51,0-1,.08-1.54Z"/><polygon class="cls-2" points="132.55 131.05 132.43 131.05 132.43 130.28 131.02 130.28 131.02 131.21 132.55 131.21 132.55 131.05"/><path class="cls-2" d="M132.72,131.05h12.35c.18-.26.39-.51.58-.77H132.72Z"/><polygon class="cls-2" points="132.72 130.28 132.43 130.28 132.43 131.05 132.55 131.05 132.72 131.05 132.72 130.28"/><path class="cls-2" d="M110.9,148.8A28.26,28.26,0,1,1,60,131.89l-2.72-2.15a31.71,31.71,0,1,0,57.05,19.06c0-.31,0-.61-.05-.92h-3.46C110.87,148.2,110.9,148.5,110.9,148.8Z"/><path class="cls-2" d="M60.49,131.28,57.88,129c-.19.24-.37.5-.56.75L60,131.89Z"/><path class="cls-2" d="M82.64,117.08a31.62,31.62,0,0,0-24.17,11.2l2.73,2.15A28.23,28.23,0,0,1,110.76,146l3.47,0A31.72,31.72,0,0,0,82.64,117.08Z"/><path class="cls-2" d="M110.86,147.86v0h3.46v0Z"/><path class="cls-2" d="M110.76,146c.06.61.08,1.24.1,1.86l3.46,0c0-.62,0-1.25-.09-1.86Z"/><path class="cls-2" d="M58.47,128.28c-.2.23-.39.47-.59.71l2.61,2.29c.23-.29.47-.57.71-.85Z"/><path class="cls-2" d="M80.4,148h-.93l-5.93-5.22a10.93,10.93,0,1,0,20,6,7.8,7.8,0,0,0-.09-.83l-13,.07Z"/><path class="cls-2" d="M80.49,148l13-.07v0L80.4,148Z"/><path class="cls-2" d="M80.4,148l-6.77-5.34-.09.13L79.47,148Z"/><path class="cls-2" d="M82.64,137.88a10.86,10.86,0,0,0-7.82,3.31l6.31,5,12.06-.07A10.89,10.89,0,0,0,82.64,137.88Z"/><path class="cls-2" d="M74.82,141.19a12.64,12.64,0,0,0-1.19,1.44L80.4,148l13.08,0a10.91,10.91,0,0,0-.29-1.83l-12.06.07Z"/><path class="cls-2" d="M192.49,125.17l3.77,4.09.34,1.37.58.62,1,5.53,1.1,4.35h2.86A31.62,31.62,0,0,0,192.49,125.17Z"/><path class="cls-2" d="M199.23,142.72H199a28.26,28.26,0,1,1-55.85,6.07c0-.33,0-.66,0-1h-3.47c0,.34-.05.66-.05,1a31.73,31.73,0,1,0,62.86-6.13h-3.28Z"/><path class="cls-2" d="M199.27,141.13l-1.1-4.35,1.05,5.89h3.28c-.11-.52-.24-1-.37-1.54Z"/><path class="cls-2" d="M146.22,129.51h.29L153,123A31.86,31.86,0,0,0,146.22,129.51Z"/><path class="cls-2" d="M196.6,130.63l-.34-1.37-3.77-4.09a29.85,29.85,0,0,0-3.49-2.74Z"/><path class="cls-2" d="M145.65,130.28h.09l.77-.77h-.29C146,129.77,145.83,130,145.65,130.28Z"/><path class="cls-2" d="M171.37,120.54A28.25,28.25,0,0,1,196.2,135.3l-1.39-5.47-8.29-8.91a31.58,31.58,0,0,0-11.84-3.67l-6.85,0a31.67,31.67,0,0,0-12.75,4.33l-8.65,9.06-4.72,16.92h-2c0,.08,0,.15,0,.22h3.47A28.24,28.24,0,0,1,171.37,120.54Z"/><path class="cls-2" d="M140.54,146.05l3.9-14a31.41,31.41,0,0,0-4.66,14Z"/><path class="cls-2" d="M199,142.73h.27v-.05H199S199,142.71,199,142.73Z"/><polygon class="cls-2" points="196.6 130.63 198.17 136.78 197.18 131.25 196.6 130.63"/><path class="cls-2" d="M167.83,117.28l6.85,0a32.89,32.89,0,0,0-3.31-.17A34.35,34.35,0,0,0,167.83,117.28Z"/><path class="cls-2" d="M189,122.43c-.8-.54-1.63-1.05-2.48-1.51l8.29,8.91,1.39,5.47a27.9,27.9,0,0,1,2.75,7.37h.27l-1.05-5.89-1.57-6.15Z"/><path class="cls-2" d="M146.51,129.51h.25l-.33,1.16,8.65-9.06c-.71.43-1.41.88-2.08,1.36Z"/><path class="cls-2" d="M145.07,131.05c-.23.34-.42.69-.63,1l-3.9,14h-.76c0,.51-.06,1-.08,1.54h2l4.72-16.92-.36.38Z"/><path class="cls-2" d="M146.51,129.51l-.77.77h-.09c-.19.26-.4.51-.58.77h1l.36-.38.33-1.16Z"/><path class="cls-2" d="M171.37,159.73A10.93,10.93,0,0,0,182.3,148.8a10.78,10.78,0,0,0-1-4.54l-20.61,2.33a10.91,10.91,0,0,0,10.7,13.14Z"/><path class="cls-2" d="M171.37,137.88a10.93,10.93,0,0,0-10.7,8.71l20.61-2.33A10.9,10.9,0,0,0,171.37,137.88Z"/><rect class="cls-2" x="180.86" y="98.87" width="22.07" height="0.01"/><polygon class="cls-2" points="180.86 84.87 180.86 97.33 202.92 97.33 202.92 78.03 198.87 78.03 180.86 84.87"/><polygon class="cls-2" points="202.91 76.49 202.92 76.49 202.92 76.48 202.91 76.49"/><rect class="cls-2" x="180.86" y="97.33" width="22.07" height="1.54"/><polygon class="cls-2" points="202.91 76.49 198.87 78.03 202.92 78.03 202.92 76.49 202.91 76.49"/><path class="cls-2" d="M120.12,77.77l-11.32-4.6c-3.55-1-9.53-2.58-10.14-2.64-.32,0-1.06,0-2.17-3.23l-5.15-5L83.49,59c-5.67-.84-18.29-2.7-20-3a88.62,88.62,0,0,0-8.63,4.14l-4.22,1-11.25,0-4.6,3.68c-3.85,4.4-4.43,4.4-4.78,4.4-.42.21-4.65,3.23-8.38,6l-5,5.09h109Z"/><polygon class="cls-2" points="126.15 80.53 125.61 80.28 16.58 80.28 16.52 80.34 126.15 80.53"/><path class="cls-2" d="M15.93,79.76l5.2-5.19S29.4,68.41,30,68.41s4.3-4.23,4.3-4.23l4.81-3.84H50.43l4-1s8.47-4.42,9-4.23,20.2,3.08,20.2,3.08l8.08,3.46,5.38,5.2s1,2.88,1.54,2.88,10.39,2.69,10.39,2.69l11.35,4.62,6.73,3.08,0,.13H128l-.23-.69-7.06-3.23-11.44-4.65c-3.4-.93-9-2.45-10.34-2.69a10.7,10.7,0,0,1-1.06-2.39l-5.58-5.5L84,57.51l-.19,0c-7.7-1.13-19.4-2.88-20.06-3.05-.35-.11-.9-.29-9.46,4.22l-3.86.94H38.81l-5.12,4.11a36.4,36.4,0,0,1-3.9,4c-.47.13-2,1-9.21,6.35l-5.19,5.2-.48,1.06h.8ZM98.8,69h0Z"/><polygon class="cls-2" points="128.62 82.07 128.62 82.07 126.24 82.07 128.62 82.07"/><polygon class="cls-2" points="126.24 82.07 128.62 82.07 128.02 80.28 127.21 80.28 127.55 81.3 15.36 81.11 15.71 80.28 14.91 80.28 14.19 81.88 126.24 82.07"/><path class="cls-2" d="M120.44,77.07l-11.35-4.62s-9.81-2.69-10.39-2.69-1.54-2.88-1.54-2.88l-5.38-5.2L83.7,58.22s-19.62-2.88-20.2-3.08-9,4.23-9,4.23l-4,1H39.08l-4.81,3.84s-3.72,4.23-4.3,4.23-8.84,6.16-8.84,6.16l-5.2,5.19-.22.52h.87l5-5.09c3.73-2.78,8-5.8,8.38-6,.35,0,.93,0,4.78-4.4l4.6-3.68,11.25,0,4.22-1a88.62,88.62,0,0,1,8.63-4.14c1.75.35,14.37,2.21,20,3l7.85,3.37,5.15,5c1.11,3.23,1.85,3.23,2.17,3.23.61.06,6.59,1.67,10.14,2.64l11.32,4.6,5.49,2.51h1.6l0-.13Z"/><polygon class="cls-2" points="126.15 80.53 16.52 80.34 16.58 80.28 15.71 80.28 15.36 81.11 127.55 81.3 127.21 80.28 125.61 80.28 126.15 80.53"/></svg>