<svg id="Layer_1" data-name="Layer 1" xmlns="http://www.w3.org/2000/svg" viewBox="0 0 238.3138 299"><title>Services Icons</title><path d="M78.3155,133.7673h88.1078v-77.23H78.3155Zm40.7662-59.77H160.82V86.5758H119.0818Zm0,23.1564H160.82v12.5788H119.0818ZM83.0608,73.997H114.205v4.7974H83.0608Zm0,23.1564H114.205v4.7974H83.0608Z" style="fill:#fff"/><path d="M189.4043,269.3919H55.3347V35.2649h134.07Zm-130.3615-3.708H185.6963V38.9729H59.0428Zm63.3264-32.9125a26.2531,26.2531,0,0,1-26.2231-26.2231c0-13.4658,21.2187-39.5971,23.6376-42.5327l2.5849-3.14,2.5867,3.1407c2.42,2.9367,23.6376,29.0838,23.6376,42.5315A26.2532,26.2532,0,0,1,122.3692,232.7714ZM173.3947,140.46H71.3438V49.8448H173.3947Zm-98.3428-3.708h94.6348V53.5528H75.0518Z" style="fill:#fff"/><rect x="49.4229" y="272.7602" width="145.8931" height="17.0769" style="fill:#fff"/><rect x="49.4229" y="15.4673" width="145.8931" height="17.0769" style="fill:#fff"/><path d="M191.1238,106.5874V134.032h22.2987V97.4392H200.2719Zm12.0711,24.099h-6.6043V108.0376h6.6043Z" style="fill:#fff"/><path d="M193.4108,58.5148s9.1482-.4586,9.1482,20.3422V94.8663H209.42V78.857s-.08-26.8728-16.0093-26.8728Z" style="fill:#fff"/><rect x="215.8532" y="86.9762" width="6.6044" height="24.858" style="fill:#fff"/><path d="M200.5578,138.526a2.2872,2.2872,0,0,0-2.287,2.287v88.989h-5.9595a2.287,2.287,0,0,0,0,4.5741h8.2465a2.2872,2.2872,0,0,0,2.287-2.287V140.8131A2.2872,2.2872,0,0,0,200.5578,138.526Z" style="fill:#fff"/><path d="M53.4656,149.47a2.2872,2.2872,0,0,0-2.287-2.287H43.8951V57.9877h5.8541a2.287,2.287,0,0,0,0-4.5741H41.608a2.2872,2.2872,0,0,0-2.287,2.287V149.47a2.2872,2.2872,0,0,0,2.287,2.287h9.5705A2.2872,2.2872,0,0,0,53.4656,149.47Z" style="fill:#fff"/></svg>