<svg id="Layer_1" data-name="Layer 1" xmlns="http://www.w3.org/2000/svg" viewBox="0 0 446 299"><title>Services Icons</title><path d="M425.3671,162.9753q.5631,0,1.0859.01l-.226,26.0613a95.8552,95.8552,0,0,0-10.5322-.6157,56.7435,56.7435,0,0,0-18.7216,2.8029,29.5466,29.5466,0,0,1-9.6294,1.4607,35.587,35.587,0,0,1-12.8767-2.26l.19-21.8478a140.9252,140.9252,0,0,0,23.3689-2.4705c8.8594-1.5531,19.0357-3.1409,27.3414-3.1409m0-10.456c-9.313,0-20.3671,1.7588-29.1469,3.2981a128.7125,128.7125,0,0,1-21.5773,2.3133,30.3211,30.3211,0,0,1-7.8006-.7893c-2.08-.5682-2.5336-1.235-2.5336-1.235l-.3353,38.6427c1.07,4.3539,11.9119,8.401,23.37,8.401a39.903,39.903,0,0,0,13.097-2.0524,46.8657,46.8657,0,0,1,15.2537-2.2112,95.6255,95.6255,0,0,1,20.8816,2.5246l.412-47.5022a40.3587,40.3587,0,0,0-11.621-1.39Z" style="fill:#fff"/><path d="M364.08,203.0143v.0026h0v-.0026Zm0,.0026c-.0028.5085-.5948,83.9107-.5948,83.9107l8.3336.0725.2568-79.2509a24.7992,24.7992,0,0,1-7.9957-4.7322Z" style="fill:#fff"/><path d="M20.9971,162.9753h0c8.3058,0,18.4821,1.5878,27.3408,3.1409a140.9359,140.9359,0,0,0,23.37,2.4705l.19,21.8478a35.5862,35.5862,0,0,1-12.8766,2.26,29.5466,29.5466,0,0,1-9.6294-1.4607,56.74,56.74,0,0,0-18.7214-2.8029,95.7317,95.7317,0,0,0-10.5323.6157L19.911,162.985q.5232-.01,1.0861-.01m0-10.456a40.36,40.36,0,0,0-11.6212,1.39l.4121,47.5022a95.5872,95.5872,0,0,1,20.8814-2.5246,46.866,46.866,0,0,1,15.2538,2.2112A39.903,39.903,0,0,0,59.02,203.15c11.4584,0,22.3-4.0471,23.37-8.401l-.3352-38.6427s-.4537.6668-2.5337,1.235a30.3192,30.3192,0,0,1-7.8.7893,128.7125,128.7125,0,0,1-21.5774-2.3133c-8.78-1.5393-19.8339-3.2981-29.1468-3.2981Z" style="fill:#fff"/><path d="M82.2845,203.0143v.0026h0v-.0026Zm0,.0026a24.7889,24.7889,0,0,1-7.9955,4.7322L74.5457,287l8.3336-.0725s-.592-83.4022-.5949-83.9107Z" style="fill:#fff"/><path d="M344.6745,103.362v170.781H103.1416V103.362H344.6745M355.13,92.906H92.6857V284.5989H355.13V92.906Z" style="fill:#fff"/><path d="M354.6077,78.9645V92.5573H93.2085V78.9645H354.6077m10.456-10.456H82.7525v34.5047H365.0636V68.5086Z" style="fill:#fff"/><path d="M250.2365,24.0191a42.5213,42.5213,0,0,0,9.98,13.3477c12.0064,10.9772,30.4409,17.2,54.8844,18.5471l0,6.4482.0017,6.1465H132.7376c-.0147-4.5775-.0243-8.95-.0265-12.5916,44.27-2.4287,59.6521-20.3371,64.9834-31.8978h52.5421m7.5785-10.456H190.0686s-2.0256,32.1741-67.7464,32.1741c-.1518.03,0,33.2273,0,33.2273H325.5615s-.0119-33.2018,0-33.2273c-65.1109,0-67.7464-32.1741-67.7464-32.1741Z" style="fill:#fff"/><path d="M244.5982,162.7537v91.6117h-41.38V162.7537h41.38m9.3218-9.3215H193.8962V263.687H253.92V153.4322Z" style="fill:#fff"/><path d="M169.141,162.7537v91.6117h-41.38V162.7537h41.38m9.3218-9.3215H118.439V263.687h60.0238V153.4322Z" style="fill:#fff"/><path d="M320.0555,162.7537v91.6117h-41.38V162.7537h41.38m9.3218-9.3215H269.3535V263.687h60.0238V153.4322Z" style="fill:#fff"/></svg>