<svg id="Layer_1" data-name="Layer 1" xmlns="http://www.w3.org/2000/svg" viewBox="0 0 246 227"><defs><style>.cls-1{fill:#fff;}</style></defs><title>Service Icons-</title><path class="cls-1" d="M26.19,33.78,24.34,21.23h-8l23,156.14h8L41,134.4H206.89L235,33.78ZM228,41.87H208.53v-3.5h20.41Zm-19.44,65.85V91h5.71l-4.67,16.71ZM31.09,67.06H41.32V86.41H33.94Zm14.83,0H64.55V86.41H45.92Zm23.23,0H87.78V86.41H69.15Zm88.32-4.6H138.84v-16h18.63Zm4.6-16H180.7v16H162.07Zm-27.83,16H115.61v-16h18.63Zm-18.63,4.6h18.63V86.41H115.61ZM111,86.41H92.38V67.06H111Zm0-23.95H92.38v-16H111Zm-23.23,0H69.15v-16H87.78Zm0,28.55v16.71H69.15V91Zm4.6,0H111v16.71H92.38Zm23.23,0h18.63v16.71H115.61Zm23.23,0h18.63v16.71H138.84Zm0-4.6V67.06h18.63V86.41Zm23.23-19.35H180.7V86.41H162.07Zm23.23,0h18.63V86.41H185.3Zm0-4.6v-16h18.63v16Zm0-20.59v-3.5h18.63v3.5Zm-4.6,0H162.07v-3.5H180.7Zm-23.23,0H138.84v-3.5h18.63Zm-23.23,0H115.61v-3.5h18.63Zm-23.23,0H92.38v-3.5H111Zm-23.23,0H69.15v-3.5H87.78Zm-23.23,0H45.92v-3.5H64.55Zm0,4.6v16H45.92v-16Zm-23.23,16H30.42l-2.36-16H41.32ZM34.62,91h6.7v16.71H37.08Zm11.3,0H64.55v16.71H45.92Zm18.63,21.31v17.49H45.92V112.32Zm4.6,0H87.78v17.49H69.15Zm23.23,0H111v17.49H92.38Zm23.23,0h18.63v17.49H115.61Zm23.23,0h18.63v17.49H138.84Zm23.23,0H180.7v17.49H162.07Zm0-4.6V91H180.7v16.71ZM185.3,91h18.63v16.71H185.3Zm23.23-4.6V67.06h12.4l-5.4,19.35Zm0-23.95v-16h18.15l-4.47,16ZM41.32,38.37v3.5H27.38l-.51-3.5Zm-3.56,73.95h3.56v17.49h-1ZM185.3,129.81V112.32h18.63v15h.17l-.7,2.49Z"/><path class="cls-1" d="M44.22,192.39a14.33,14.33,0,1,0,14.32,14.33A14.35,14.35,0,0,0,44.22,192.39Zm0,26.78a12.45,12.45,0,1,1,12.44-12.45A12.46,12.46,0,0,1,44.22,219.17Z"/><path class="cls-1" d="M44.22,197A9.76,9.76,0,1,0,54,206.72,9.75,9.75,0,0,0,44.22,197Z"/><path class="cls-1" d="M202,179.34h-181a1.76,1.76,0,0,0-1.77,1.76v8a1.76,1.76,0,0,0,1.77,1.76H202a1.76,1.76,0,0,0,1.77-1.76v-8A1.76,1.76,0,0,0,202,179.34Zm-1.77,8H22.7v-4.49H200.18Z"/><rect class="cls-1" x="7.94" y="13.09" width="18.68" height="6.15"/><path class="cls-1" d="M168.27,192.39a14.33,14.33,0,1,0,14.32,14.33A14.35,14.35,0,0,0,168.27,192.39Zm0,26.78a12.45,12.45,0,1,1,12.44-12.45A12.46,12.46,0,0,1,168.27,219.17Z"/><circle class="cls-1" cx="168.27" cy="206.72" r="9.75"/></svg>