<svg id="Layer_1" data-name="Layer 1" xmlns="http://www.w3.org/2000/svg" viewBox="0 0 250.315 299"><title>Services Icons</title><path d="M54.1933,143.6646S26.9909,124.0705,28.45,117.9213c2.8245-11.9032,25.7432,0,25.7432,0Z" style="fill:#fff"/><path d="M54.1933,112.0866S26.9909,92.4925,28.45,86.3433c2.8245-11.9032,25.7432,0,25.7432,0Z" style="fill:#fff"/><path d="M54.1933,80.5086S26.9909,60.9145,28.45,54.7653c2.8245-11.9032,25.7432,0,25.7432,0Z" style="fill:#fff"/><path d="M54.1933,238.3986S26.9909,218.8046,28.45,212.6554c2.8245-11.9032,25.7432,0,25.7432,0Z" style="fill:#fff"/><path d="M54.1933,206.8206S26.9909,187.2266,28.45,181.0774c2.8245-11.9032,25.7432,0,25.7432,0Z" style="fill:#fff"/><path d="M54.1933,175.2426S26.9909,155.6486,28.45,149.4994c2.8245-11.9032,25.7432,0,25.7432,0Z" style="fill:#fff"/><path d="M58.278,143.6646s27.2024-19.594,25.7432-25.7432c-2.8245-11.9032-25.7432,0-25.7432,0Z" style="fill:#fff"/><path d="M58.278,112.0866S85.48,92.4925,84.0213,86.3433c-2.8245-11.9032-25.7432,0-25.7432,0Z" style="fill:#fff"/><path d="M58.278,80.5086S85.48,60.9145,84.0213,54.7653c-2.8245-11.9032-25.7432,0-25.7432,0Z" style="fill:#fff"/><path d="M58.278,238.3986s27.2024-19.594,25.7432-25.7432c-2.8245-11.9032-25.7432,0-25.7432,0Z" style="fill:#fff"/><path d="M58.278,206.8206s27.2024-19.594,25.7432-25.7432c-2.8245-11.9032-25.7432,0-25.7432,0Z" style="fill:#fff"/><path d="M58.278,175.2426s27.2024-19.594,25.7432-25.7432c-2.8245-11.9032-25.7432,0-25.7432,0Z" style="fill:#fff"/><rect x="55.3795" y="243.359" width="3.2489" height="43.4778" style="fill:#fff"/><path d="M194.1425,143.6646s-27.2024-19.594-25.7432-25.7432c2.8245-11.9032,25.7432,0,25.7432,0Z" style="fill:#fff"/><path d="M194.1425,112.0866S166.94,92.4925,168.3993,86.3433c2.8245-11.9032,25.7432,0,25.7432,0Z" style="fill:#fff"/><path d="M194.1425,80.5086S166.94,60.9145,168.3993,54.7653c2.8245-11.9032,25.7432,0,25.7432,0Z" style="fill:#fff"/><path d="M194.1425,238.3986s-27.2024-19.594-25.7432-25.7432c2.8245-11.9032,25.7432,0,25.7432,0Z" style="fill:#fff"/><path d="M194.1425,206.8206s-27.2024-19.594-25.7432-25.7432c2.8245-11.9032,25.7432,0,25.7432,0Z" style="fill:#fff"/><path d="M194.1425,175.2426s-27.2024-19.594-25.7432-25.7432c2.8245-11.9032,25.7432,0,25.7432,0Z" style="fill:#fff"/><path d="M198.2273,143.6646s27.2024-19.594,25.7432-25.7432c-2.8245-11.9032-25.7432,0-25.7432,0Z" style="fill:#fff"/><path d="M198.2273,112.0866s27.2024-19.594,25.7432-25.7432c-2.8245-11.9032-25.7432,0-25.7432,0Z" style="fill:#fff"/><path d="M198.2273,80.5086s27.2024-19.594,25.7432-25.7432c-2.8245-11.9032-25.7432,0-25.7432,0Z" style="fill:#fff"/><path d="M198.2273,238.3986s27.2024-19.594,25.7432-25.7432c-2.8245-11.9032-25.7432,0-25.7432,0Z" style="fill:#fff"/><path d="M198.2273,206.8206s27.2024-19.594,25.7432-25.7432c-2.8245-11.9032-25.7432,0-25.7432,0Z" style="fill:#fff"/><path d="M198.2273,175.2426s27.2024-19.594,25.7432-25.7432c-2.8245-11.9032-25.7432,0-25.7432,0Z" style="fill:#fff"/><rect x="195.3288" y="243.359" width="3.2489" height="43.4778" style="fill:#fff"/><path d="M124.6744,123.4668s-31.04-22.3582-29.3749-29.3749c3.223-13.5824,29.3749,0,29.3749,0Z" style="fill:#fff"/><path d="M124.6744,87.434s-31.04-22.3582-29.3749-29.3749c3.223-13.5824,29.3749,0,29.3749,0Z" style="fill:#fff"/><path d="M124.6744,51.4012s-31.04-22.3582-29.3749-29.3749c3.223-13.5824,29.3749,0,29.3749,0Z" style="fill:#fff"/><path d="M124.6744,231.5653s-31.04-22.3582-29.3749-29.3749c3.223-13.5824,29.3749,0,29.3749,0Z" style="fill:#fff"/><path d="M124.6744,195.5325s-31.04-22.3582-29.3749-29.3749c3.223-13.5824,29.3749,0,29.3749,0Z" style="fill:#fff"/><path d="M124.6744,159.5s-31.04-22.3582-29.3749-29.3749c3.223-13.5824,29.3749,0,29.3749,0Z" style="fill:#fff"/><path d="M129.3354,123.4668s31.04-22.3582,29.3749-29.3749c-3.223-13.5824-29.3749,0-29.3749,0Z" style="fill:#fff"/><path d="M129.3354,87.434s31.04-22.3582,29.3749-29.3749c-3.223-13.5824-29.3749,0-29.3749,0Z" style="fill:#fff"/><path d="M129.3354,51.4012s31.04-22.3582,29.3749-29.3749c-3.223-13.5824-29.3749,0-29.3749,0Z" style="fill:#fff"/><path d="M129.3354,231.5653s31.04-22.3582,29.3749-29.3749c-3.223-13.5824-29.3749,0-29.3749,0Z" style="fill:#fff"/><path d="M129.3354,195.5325s31.04-22.3582,29.3749-29.3749c-3.223-13.5824-29.3749,0-29.3749,0Z" style="fill:#fff"/><path d="M129.3354,159.5s31.04-22.3582,29.3749-29.3749c-3.223-13.5824-29.3749,0-29.3749,0Z" style="fill:#fff"/><rect x="126.0281" y="237.2256" width="3.7071" height="49.6112" style="fill:#fff"/></svg>