<svg id="Layer_1" data-name="Layer 1" xmlns="http://www.w3.org/2000/svg" viewBox="0 0 446 299"><title>Services Icons</title><path d="M410.0044,202.4991a5.3552,5.3552,0,0,1,.0222-.8519A3.2571,3.2571,0,0,0,410.0044,202.4991Z" style="fill:none"/><rect x="177.668" y="105.9474" width="126.9771" height="37.0112" style="fill:#fff"/><path d="M173.8535,255.3636l.1262.0239.1151.0573,3.5885,1.7943L216.506,147.5823H179.1744L142.9869,249.7959c1.5635.2673,3.2269.5547,5.0176.8679C160.8868,252.9165,173.7253,255.3391,173.8535,255.3636Z" style="fill:#fff"/><polygon points="326.948 254.657 335.294 239.755 335.828 240.493 303.703 147.582 266.367 147.582 303.938 256.246 308.257 250.693 326.948 254.657" style="fill:#fff"/><polygon points="341.652 251.691 353.201 285.093 311.959 285.093 303.306 260.064 281.917 287.564 367.269 285.901 354.023 268.792 341.652 251.691" style="fill:#fff"/><polygon points="350.611 283.248 337.912 246.522 335.492 243.177 327.894 256.744 309.005 252.737 304.657 258.326 313.274 283.248 350.611 283.248" style="fill:#fff"/><polygon points="351.906 284.171 312.617 284.171 303.981 259.195 303.306 260.064 311.959 285.093 353.201 285.093 341.652 251.691 339.782 249.107 351.906 284.171" style="fill:#fff"/><polygon points="350.611 283.248 313.274 283.248 304.657 258.326 303.981 259.195 312.617 284.171 351.906 284.171 339.782 249.107 337.912 246.522 350.611 283.248" style="fill:#fff"/><path d="M187.5653,272.7388l-.0011-8.4966-8.8385-4.4192-8.9467,25.27H128.5328l11.98-33.8384c-9.98-1.68-17.9538-2.8715-19.3672-2.69-1.2081.96-4.5708,6.17-6.46,9.3186l-.13.1685L94.3591,278.81l1.0935,10.3883-.9175.0967h0l93.3822-4.5552h0l-.9214-.0439Z" style="fill:#fff"/><path d="M142.36,251.5674l-11.2163,31.6809H168.475l8.5878-24.2568-3.6782-1.839C164.2837,255.4343,152.4731,253.2876,142.36,251.5674Z" style="fill:#fff"/><path d="M169.127,284.1709H129.8381l11.5984-32.76c-.3112-.0526-.6161-.1038-.9236-.1555l-11.98,33.8384H169.779l8.9467-25.27-.8314-.4158Z" style="fill:#fff"/><path d="M131.1434,283.2483,142.36,251.5674c-.308-.0525-.6183-.1053-.9232-.157l-11.5984,32.76H169.127l8.7673-24.7637-.8314-.4158-8.5878,24.2568Z" style="fill:#fff"/><path d="M64.3337,204.1173c-1.0734,3.1942-9.184,21.2374-16.6044,37.32L17.7478,282.7329l5.5295,4.0146L53.6525,244.91l.14-.3041c10.4-22.5343,14.579-32.1385,16.2612-36.422-1.3042.8677-2.0751,1.3784-2.1031,1.397Z" style="fill:#fff"/><path d="M431,286.4189c-5.57-31.2766-13.8442-78.8613-14.1881-83.8665.1136-1.3033-.821-4.1921-6.3524-21.2854-3.1217-9.6465-6.3074-19.3485-6.3391-19.4453l-.3494-1.0637L384.0576,146.677l-4.4508-24.3729-4.6211,4.1458-1.9686-2.1946,4.8159,26.3732,20.1445,14.3884c4.5037,13.7253,11.3857,34.9395,12.03,37.564.1162,2.7186,1.3831,11.1451,6.9316,43.2393q.3223,1.8646.6451,3.7253l8.32,12.2024-5.5325,3.7719c2.1917,12.494,3.8765,21.9572,3.9012,22.097Zm-20.9956-83.92a3.2571,3.2571,0,0,1,.0222-.8519A5.3552,5.3552,0,0,0,410.0044,202.4991Z" style="fill:#fff"/><path d="M372.1067,81.2322,307.644,33.3288l-23.5,6.155L255.4484,7.9187l-32.8356,13.63L156.4811,73.7577l-.3083,1.0365c-1.04,3.4943-7.838,26.3489-11.8835,40.2954-.4012-1.417-.7982-2.8342-1.1619-4.1327-3.3408-11.9281-4.3932-15.3544-5.4316-16.739-1.16-1.5465-3.355-2.8231-11.5093-1.7059-3.7462.5132-8.5524,1.5691-10.8451,2.77-2.4989,1.3094-2.6893,3.1738-2.562,4.217-.1885,2.2131-3.1354,13.1631-6.1261,23.4l-15.1415,2.8042-9.9084,24.1519-7.9595,31.2688c-7.3994,16.66-8.9028,21.0814-9.2085,22.5887,3.1981-2.1184,6.46-4.2932,9.6788-6.4537,1.6714-3.9988,3.8258-8.9771,5.8913-13.6244l.1176-.2642,7.9839-31.3656,8.3122-20.2617,15.603-2.8892.5936-2.01c4.7368-16.0317,6.3636-22.8051,6.8251-25.9124,2.9647-1.0459,10.1973-2.2609,12.9968-2.0035.9292,2.514,2.81,9.2285,4.11,13.871,1.0282,3.67,2.0911,7.4651,2.9452,10.2615,1.3526,4.4263,2.1725,7.0958,5.1672,6.9847a3.5289,3.5289,0,0,0,3.3325-2.9277c.4318-2.0879,8.7432-30.2529,14.4208-49.3379l18.5806-14.6689-.9263-1.2249,5.4505-4.1216.84,1.1113,39.7473-31.3793,27.5213-11.4242,28.245,31.0692,24.33-6.3719,59.6674,44.34,4.802,26.2966,8.7214,9.7224ZM112.8439,99.8757a3.0239,3.0239,0,0,0,.0859.3147A3.0239,3.0239,0,0,1,112.8439,99.8757Z" style="fill:#fff"/><polygon points="380.072 121.887 379.392 121.129 379.607 122.304 380.072 121.887" style="fill:#fff"/><polygon points="344.59 82.333 302.495 73.563 301.101 80.252 341.001 88.565 373.017 124.255 370.671 111.407 344.59 82.333" style="fill:#fff"/><polygon points="379.607 122.304 379.392 121.129 370.671 111.407 373.017 124.255 374.986 126.45 379.607 122.304" style="fill:#fff"/><polygon points="199.493 87.577 234.533 68.521 231.268 62.519 201.396 78.765 186.358 58.876 180.994 63.111 199.493 87.577" style="fill:#fff"/><polygon points="180.067 61.886 180.994 63.111 186.358 58.876 185.518 57.765 180.067 61.886" style="fill:#fff"/><path d="M70.0541,208.1836C73.6634,205.782,81.395,200.62,89.0587,195.39c6.1414-4.1909,11.04-7.6068,14.56-10.1514,4.0882-2.9554,6.1267-4.5251,7.1168-5.7251,3.7345-1.5364,21.507-5.8286,37.48-9.3013l-1.4513-6.6771c-.0987.0216-9.97,2.17-19.7134,4.5-5.7477,1.3745-10.3369,2.545-13.64,3.4788-4.4641,1.261-7.3188,2.0679-8.2722,3.9768-2.6443,2.4253-16.3823,11.942-31.024,21.769-1.5842,3.79-2.7349,6.7012-2.9512,7.59A18.2659,18.2659,0,0,1,70.0541,208.1836Zm34.73-31.0669v0Z" style="fill:#fff"/><path d="M64.4354,203.713l-.2567.17.155.2341c.0219-.0653.0458-.1348.0618-.1874C64.4057,203.8655,64.4194,203.7921,64.4354,203.713Z" style="fill:#fff"/><path d="M64.3956,203.93c-.016.0526-.04.1221-.0618.1874l3.6172,5.4633c.028-.0186.7989-.5293,2.1031-1.397a18.2659,18.2659,0,0,0,1.109-3.3345c.2163-.8887,1.367-3.8,2.9512-7.59-3.219,2.1605-6.4807,4.3353-9.6788,6.4537C64.4194,203.7921,64.4057,203.8655,64.3956,203.93Z" style="fill:#fff"/><path d="M408.1538,235.7142l-50.1-15.7292-2.0469,6.5192,47.8374,15.0186,16.4141,24.0741.1133-.0771c-.873-4.9769-1.8259-10.431-2.7875-15.9742Z" style="fill:#fff"/><path d="M417.5841,249.5454c.9615,5.5432,1.9144,10.9973,2.7875,15.9742l5.5325-3.7719Z" style="fill:#fff"/></svg>