<svg id="Layer_1" data-name="Layer 1" xmlns="http://www.w3.org/2000/svg" viewBox="0 0 224 218"><defs><style>.cls-1{fill:#fff;}</style></defs><title>Service Icons-</title><path class="cls-1" d="M3.44,38.86V180.2H220V38.86ZM17.93,65.11h66v64H71.39l5.09,2.54a12.2,12.2,0,0,1,1.42.86c-.84.75-1.72,1.46-2.62,2.14l-.23-.12L64.2,129.14H35.9l-9.73,5.3-.14.08c-.89-.68-1.75-1.39-2.59-2.14a12.4,12.4,0,0,1,1.19-.76l4.55-2.48H17.93Zm147.86,87.16a4.09,4.09,0,0,1-4.08,4.08H23.08A4.09,4.09,0,0,1,19,152.27v-3a4.09,4.09,0,0,1,4.08-4.08H161.71a4.09,4.09,0,0,1,4.08,4.08Zm0-38.18a4.08,4.08,0,0,1-4.06,4.06H99.38a4.08,4.08,0,0,1-4.06-4.06v-3A4.08,4.08,0,0,1,99.38,107h62.35a4.08,4.08,0,0,1,4.06,4.06Zm0-39.36a4.07,4.07,0,0,1-4.06,4H99.38a4.07,4.07,0,0,1-4.06-4V71.67a4.07,4.07,0,0,1,4.06-4h62.35a4.07,4.07,0,0,1,4.06,4Zm35.43,67.93-16.22,13a3.23,3.23,0,0,1-4.31-.24l-6.5-6.48a3.25,3.25,0,0,1,4.6-4.59l4.43,4.43,14-11.17a3.24,3.24,0,0,1,4,5.07Zm0-38.2-16.22,13a3.18,3.18,0,0,1-2,.72,3.24,3.24,0,0,1-2.3-1l-6.5-6.48a3.25,3.25,0,0,1,4.6-4.6l4.43,4.44,14-11.17a3.24,3.24,0,0,1,4,5.07Zm0-39.37L185,78.07a3.23,3.23,0,0,1-4.31-.24l-6.5-6.48a3.25,3.25,0,0,1,4.6-4.59l4.43,4.43,14-11.17a3.24,3.24,0,0,1,4,5.07Z"/><path class="cls-1" d="M24.63,131.62a12.4,12.4,0,0,0-1.19.76c.84.75,1.7,1.46,2.59,2.14l.14-.08,9.73-5.3H29.18Z"/><path class="cls-1" d="M75.05,134.56l.23.12c.9-.68,1.78-1.39,2.62-2.14a12.2,12.2,0,0,0-1.42-.86l-5.09-2.54H64.2Z"/><path class="cls-1" d="M60.91,121.69v-2.13c.31-.39.65-.83,1-1.32,1.76-2.48,3.17-7.87,4.2-10.84a5.81,5.81,0,0,0,3.35-5.28L70,96.46c0-1.39-1-2.77-2-3.84l-1.34-7.49a13,13,0,0,0-3-9.42c-3-3.37-6.41-5.09-12.9-5.09s-10.06,1.72-13,5.09a13,13,0,0,0-3,9.42L33.5,92.62c-.91,1.06-2.19,2.7-2.19,4.09l.77,5.41a5.83,5.83,0,0,0,2.15,4.53c1.3,5.1,4,11,5,12.32v2.58a3.6,3.6,0,0,1-1.87,3.15l-8.15,4.44H35.9l3-1.62a6.79,6.79,0,0,0,3.53-6v-3.71l-.36-.45a54.24,54.24,0,0,1-4.83-12l-.14-.63-.55-.36a2.65,2.65,0,0,1-1.23-2.23l-.77-5.41c0-.74,1.09-1.73,1.66-2.25l.53-.48L37.93,85l0-.21a9.68,9.68,0,0,1,2.24-7c2.33-2.65,5.09-4,10.61-4s8.13,1.33,10.45,4a9.86,9.86,0,0,1,2.28,7L64.81,94l.54.47c.57.52,1.42,1.26,1.42,2l-.53,5.66a2.68,2.68,0,0,1-1.9,2.53l-.8.24-.26.8c-.94,2.94-2.29,8.28-4,10.7-.43.59-.83,1.12-1.19,1.53l-.39.44v3.33a6.76,6.76,0,0,0,3.75,6.07l2.75,1.38h7.19l-8.51-4.25A3.57,3.57,0,0,1,60.91,121.69Z"/></svg>