<svg id="Layer_1" data-name="Layer 1" xmlns="http://www.w3.org/2000/svg" viewBox="0 0 446 299"><title>Services Icons</title><path d="M406.0636,284.9324H44.9051A34.11,34.11,0,0,1,10.8338,250.86V43.0241A34.11,34.11,0,0,1,44.9051,8.9527H406.0636a34.11,34.11,0,0,1,34.0722,34.0714V250.86A34.1111,34.1111,0,0,1,406.0636,284.9324ZM44.9051,22.5809A20.4666,20.4666,0,0,0,24.462,43.0241V250.86a20.4667,20.4667,0,0,0,20.4432,20.444H406.0636a20.4669,20.4669,0,0,0,20.444-20.444V43.0241a20.4667,20.4667,0,0,0-20.444-20.4432Z" style="fill:#fff"/><rect x="15.3769" y="97.5382" width="422.4876" height="43.1573" style="fill:#fff"/><rect x="56.2627" y="188.2504" width="120.3862" height="13.6286" style="fill:#fff"/><rect x="56.2627" y="222.4673" width="232.1625" height="13.6286" style="fill:#fff"/><path d="M316.4386,67.7554v15.98h-8.5513v-44.15h14.7675q6.6416,0,10.5227,3.8958a13.8291,13.8291,0,0,1,3.8811,10.2029,13.7662,13.7662,0,0,1-3.8811,10.2049q-3.8826,3.8664-10.5227,3.8664Zm0-6.7022h6.2162a5.0789,5.0789,0,0,0,4.3818-2.0613,8.6909,8.6909,0,0,0,1.501-5.2472,9,9,0,0,0-1.501-5.3508,5.0382,5.0382,0,0,0-4.3818-2.1083h-6.2162Z" style="fill:#fff"/><path d="M372.0823,77.9133a15.5213,15.5213,0,0,1-5.4427,4.549,19.42,19.42,0,0,1-9.2035,1.9107q-7.1564,0-11.4771-4.17t-4.3211-11.8418V54.9592q0-7.6419,4.2-11.8261,4.1994-4.1862,11.1133-4.1852,7.2166,0,10.8864,3.4107t3.5476,9.72l-.0606.1819h-8.036q0-3.4587-1.5157-5.034a6.0746,6.0746,0,0,0-4.5793-1.5763,6.2437,6.2437,0,0,0-5.1552,2.3038q-1.85,2.3058-1.8491,6.9447V68.3617q0,4.7289,1.8794,7.0347A6.5288,6.5288,0,0,0,357.436,77.7a10.4588,10.4588,0,0,0,3.9124-.5906,5.23,5.23,0,0,0,2.1826-1.5607V66.6328h-6.7315V60.7207h15.2829Z" style="fill:#fff"/><path d="M389.1243,65.2071h-2.3351V83.7354h-8.5513v-44.15h8.5513V57.6581h1.7592l9.37-18.0727h10.6126L395.7952,59.7487l13.6762,23.9867H398.5547Z" style="fill:#fff"/></svg>