<svg id="Layer_1" data-name="Layer 1" xmlns="http://www.w3.org/2000/svg" viewBox="0 0 234.4784 225.6854"><title>Activities Icons-SURFING</title><path d="M130.9644,53.8358a10.2,10.2,0,1,0-10.2007-10.2A10.2119,10.2119,0,0,0,130.9644,53.8358Z" style="fill:#fff"/><path d="M105.6612,78.4286a5.0643,5.0643,0,0,0,7.144.3789l9.1792-8.2588,7.5662-1.5176,3.1921,18.4766a8.7788,8.7788,0,0,0,10.15,7.16l2.3931-.4141a8.808,8.808,0,0,0,7.16-10.1494L149.95,69.6568l6.5232,1.8279,6.4453,11.1636a5.22,5.22,0,0,0,3.1963,2.4463,5.3312,5.3312,0,0,0,1.3784.1826,5.2119,5.2119,0,0,0,2.6138-.7031l.1621-.0947a5.2745,5.2745,0,0,0,1.9263-7.1865L164.71,64.328c-.0286-.05-.0686-.09-.0989-.1382-.0076-.0137-.011-.0288-.0188-.0425a5.3863,5.3863,0,0,0-3.26-2.5674l-18.5894-5.208a5.3749,5.3749,0,0,0-1.2334-.1826,8.73,8.73,0,0,0-2.7954.0264l-2.3931.4141-.0181.0041c-.0728.0115-.1453.0175-.2183.032l-17.25,3.459a5.35,5.35,0,0,0-2.353,1.1445,5.0509,5.0509,0,0,0-.917.6446L105.64,70.8426a5.0673,5.0673,0,0,0-.377,7.1455Z" style="fill:#fff"/><path d="M198.5865,163.923l-.4907-.75a31.2367,31.2367,0,0,0-3.6807-4.2571l.1318.0179L192.4092,157l-.2051-.1855-.0044-.0006c-7.3718-6.6044-23.44-17.5953-53.304-23.8875l3.6689-10.45a5.8144,5.8144,0,0,0,.6125-.6433L156.4151,105.34a5.8521,5.8521,0,0,0-9.127-7.3271L134.397,114.0751a5.8184,5.8184,0,0,0-2.3237,2.9534l-4.8481,13.8093c-.5269-.079-1.0439-.162-1.5781-.238a202.9414,202.9414,0,0,0-23.3484-1.9832,5.85,5.85,0,0,0,5.0735-3.2189l8.36-16.6878,16.6145-2.2018a5.7265,5.7265,0,0,0,4.9194-6.4219l-.0347-.2607a5.7352,5.7352,0,0,0-6.4214-4.92l-19.69,2.6084A5.6829,5.6829,0,0,0,107.334,99.71a5.7942,5.7942,0,0,0-.4365.7015,5.8618,5.8618,0,0,0-.5171.8346l-9.4727,18.91a5.8464,5.8464,0,0,0,4.603,8.4363c-26.6653-.5867-45.8923,4.5839-56.2036,8.3427l-.0049-.0007-.208.0771-3.3813,1.24.1309.0177a56.1059,56.1059,0,0,0-5.2524,2.3973l-.9492.5215.6924.833a50.3971,50.3971,0,0,0,5.87,5.6134l-.1235-.0167,2.6221,2.0352.1895.1475.0044.0005c.5547.4282,1.1431.8719,1.771,1.3316a44.1168,44.1168,0,0,1-7.6763,9.9413.8034.8034,0,0,0,.4375,1.3818,11.1544,11.1544,0,0,0,1.5576.1064c4.6213,0,9.6521-2.68,14.0576-5.931a123.8622,123.8622,0,0,0,14.4509,7.2646q-.9353.387-1.8289.7968c-10.2827,4.7324-15.6809,11.4091-15.6111,19.3091.0393,4.4527,2.56,9.1411,7.0989,13.2015,3.11,2.7823,8.0581,5.962,12.6191,6.5421,2.9648.3769,5.6589-.35,6.8625-1.8536,1.0574-1.321.9392-3.1223.7432-6.1067-.332-5.053-.8337-12.6893,5.6284-16.0814a23.69,23.69,0,0,1,9.8342-2.8438,19.516,19.516,0,0,1,7.2358,1.0737c7.5637,2.7437,13.2593,10.7183,9.272,18.8173-2.0957,4.2564-6.4858,7.8145-12.8289,10.6021-3.6411,1.98-7.2456,3.9446-10.803,5.9915H99.9122c10.2375-3.6923,17.2617-8.9184,20.3127-15.1155a15.5354,15.5354,0,0,0-1.7373-16.6475c9.946,4.4355,15.009,11.373,15.6008,18.1768a17.7173,17.7173,0,0,1-5.0076,13.5862h10.1357a20.414,20.414,0,0,0,4.0923-13.8575,22.1565,22.1565,0,0,0-5.7048-12.6463c11.6338,7.2391,17.1094,16.9364,14.8667,26.5038h9.2913a21.3153,21.3153,0,0,0,.4092-4.0489c.0586-13.2075-12.165-25.9333-32.1655-32.7653q4.6443.2017,8.969.201c6.085,0,11.6753-.2889,16.82-.7748,14.0085,8.05,24.2117,20.2446,24.7585,37.3879h9.2329c-.5645-18.9058-12.0942-31.1858-23.4929-38.7413a117.1465,117.1465,0,0,0,21.3362-5.4869l.0063.0009.209-.0781,3.35-1.2432-.1475-.02a46.77,46.77,0,0,0,6.7886-3.3648Zm-144.29-8.761q-.3787.2838-.7629.5614c-3.91,2.82-8.2317,5.0859-12.1482,5.2269a42.6685,42.6685,0,0,0,6.604-8.8671c.1414-.2658.27-.5369.4014-.8069.1335-.2737.2627-.5478.3848-.8251.0171-.0391.0322-.0787.0493-.1179v0c.123-.2835.2488-.5665.3579-.8528s.1982-.5737.292-.8613h0a11.7535,11.7535,0,0,0,.5581-5.7682l14.9229,2.4473c-.9629,1.0672-2.6094,2.8246-4.679,4.7826l0,0q-.4109.3887-.8435.7867-.4237.39-.865.7841l0,0c-1.0916.974-2.2659,1.9635-3.4951,2.9182Q54.6882,154.8687,54.2969,155.162Zm24.5249,20.5566c-9.6663,5.0739-9.0654,14.22-8.668,20.2719.0166.2509.0337.5124.05.7758-3.8-2.4137-8.8657-7.09-8.916-12.7916-.0708-8.0019,6.7954-13.5235,16.623-16.8214a153.5058,153.5058,0,0,0,15.0872,4.43A36.9446,36.9446,0,0,0,78.8218,175.7187Zm85.207-2.5577c-3.43.5178-7.115.9459-11.061,1.2532a196.9427,196.9427,0,0,1-30.8618-.1589,105.2379,105.2379,0,0,0-20.981-2.74,157.5149,157.5149,0,0,1-20.3193-5.25c-3.1621-1.0516-6.1157-2.16-8.8931-3.2982A123.84,123.84,0,0,1,56.5743,155.46c1.4727-1.1651,2.856-2.3671,4.105-3.5222l45.0322,6.0937,21.5977,2.9225,10.9385,1.48,45.4724,6.1533A121.4319,121.4319,0,0,1,164.0289,173.1609Zm-114.8-35.6942c14.0876-4.6279,40.2637-10.2116,76.1658-5.0994.4155.0591.8176.1235,1.2285.1844q6.163.9139,11.6758,2.074c27.0471,5.6612,42.6226,15.1881,50.64,21.747Z" style="fill:#fff"/></svg>