<svg id="Layer_1" data-name="Layer 1" xmlns="http://www.w3.org/2000/svg" viewBox="0 0 207.4529 175.9228"><title>Activities Icons</title><path d="M165.4889,139.3845l-19.6375,6.2926-3.6374-.8754a1.1675,1.1675,0,0,0,.1757-.5963l-.5874-79.6479,1.75-.9166A7.1969,7.1969,0,0,0,146.59,53.923c-1.02-1.9468-2.8418-.9416-4.8607.6558l-.0349-4.7243a1.1322,1.1322,0,0,0-1.2093-1.19,1.199,1.199,0,0,0-1.19,1.2093l.0492,6.6759a16.345,16.345,0,0,1-2.582,1.8245l-18.9821,7.7826-4.2607-20.3011a6.9468,6.9468,0,0,0-.2592-.6546,7.1726,7.1726,0,0,0-13.1743-2.5926L81.6645,72.1368l18.2193,1.6413,4.2819-8.1207,2.1792,7.6838a7.1963,7.1963,0,0,0,10.2651,4.413L139.4118,65.81l.5785,78.4142c0,.0159.0082.0289.0089.0446l-2.1033-.5063.12-.088a4.7649,4.7649,0,0,0-1.85-2.2685c-.9908-.6181-7.5723,4.65-10.8408,2.1539a2.0838,2.0838,0,0,0-1.1118.0048l-5.482-31.8184a7.1889,7.1889,0,0,0-2.18-4.0381l-24.83-23.1963,6.6153-8.2532-19.2091-.0573-3.2265,5.1715-.0123.02-.03.0479c-.0168.0267-.0243.0559-.0407.0826a7.1825,7.1825,0,0,0-.5252,1.0669c-.0468.1171-.0886.2333-.1289.3518a7.1767,7.1767,0,0,0-.2527.9631c-.0188.0976-.0462.193-.0609.2908a7.1825,7.1825,0,0,0-.0841,1.18l.0055.1221.0007.0179L76.544,126.41,65.7318,149.3823c-.6328-.105-1.038-.17-1.038-.17l-1.1553,6.9948c-4.5448-.964-9.4421-2.0386-14.1459-3.1051l-1.5939,7.0215c25.8337,5.8567,32.4384,6.6911,34.4843,6.6911a3.4968,3.4968,0,0,0,.9047-.0915c1.8606-.4217,29.2533-5.463,39.6517-7.3684l1.1672-.2132,6.2293-6.6488,5.1794-1.9218,10.7126,2.5779,21.5593-6.9066ZM89.4263,123.4783a7.1863,7.1863,0,0,0,.3655-2.3881l-.33-18.9857,19.525,18.0037,1.35,27.4154c-.5443.178-.8882.2921-.8882.2921l2.0623,6.2989c-6.0167,1.1077-13.5377,2.4952-19.5688,3.6186a5.0951,5.0951,0,0,0-.5911-1.8654c-.5932-1.0059-8.8637.626-10.61-3.0974-.0636-.1357-.3737-.2949-.86-.4684Z" style="fill:#fff"/><circle cx="117.7912" cy="28.62" r="12.3993" style="fill:#fff"/><path d="M53.346,81.3905l1.14.686A15.8858,15.8858,0,0,0,75.7344,77.469l1.5843-2.4028L56.8651,48.4432l-8.3423,12.649A14.3767,14.3767,0,0,0,53.346,81.3905Z" style="fill:#fff"/><path d="M96.2153,45.8858a14.3768,14.3768,0,0,0-4.8231-20.2982l-1.14-.686C83.2762,20.7033,62.94,39.94,58.2847,46.3522l21.42,25.0126Z" style="fill:#fff"/></svg>