<svg id="Layer_1" data-name="Layer 1" xmlns="http://www.w3.org/2000/svg" viewBox="0 0 358.3258 299"><title>Services Icons</title><path d="M120.2672,213.4094a18.2035,18.2035,0,0,1-18.2031-18.2031V173.2729c0-.0518,0-.1035.0006-.1553l.709-82.9222a18.2038,18.2038,0,0,1,18.2-18.0479c.053,0,.1053,0,.1589.0012A18.2021,18.2021,0,0,1,139.1787,90.506l-.7084,82.8428v21.8575A18.2035,18.2035,0,0,1,120.2672,213.4094Z" style="fill:#fff"/><path d="M190.445,147.069a10.7024,10.7024,0,0,1-3.4606-.5766l-29.7723-10.165a10.7158,10.7158,0,0,1-4.1984-2.65L111.1915,90.8791a10.7074,10.7074,0,0,1,15.3167-14.9665l40.0384,40.9718,27.3577,9.3405a10.71,10.71,0,0,1-3.4594,20.844Z" style="fill:#fff"/><path d="M56.7391,161.6105a10.71,10.71,0,0,1-9.0209-16.4626L68.2607,112.9a10.7108,10.7108,0,0,1,1.959-2.2858l35.2989-31.0512A10.7073,10.7073,0,1,1,119.663,95.642L85.5057,125.6893,65.7805,156.655A10.7012,10.7012,0,0,1,56.7391,161.6105Z" style="fill:#fff"/><path d="M322.3489,169.9688a10.7107,10.7107,0,0,1-10.2144-7.5073l-11.793-37.622L274.7141,96a10.7079,10.7079,0,1,1,16.0089-14.225l27.1531,30.5576a10.705,10.705,0,0,1,2.213,3.91l12.48,39.8139a10.7137,10.7137,0,0,1-10.22,13.9133Z" style="fill:#fff"/><circle cx="132.3672" cy="44.4577" r="25.2465" style="fill:#fff"/><path d="M132.31,290.9765a10.7075,10.7075,0,0,1-10.69-10.2625l-3.5442-85.0624a10.7075,10.7075,0,1,1,21.3965-.8907l3.5442,85.0624a10.7073,10.7073,0,0,1-10.2523,11.1436C132.6121,290.9729,132.46,290.9765,132.31,290.9765Z" style="fill:#fff"/><path d="M101.1414,288.7906a10.9234,10.9234,0,0,1-1.247-.0722,10.7077,10.7077,0,0,1-9.4025-11.8706l9.9243-85.55a10.7076,10.7076,0,1,1,21.2725,2.4675l-9.9243,85.55A10.71,10.71,0,0,1,101.1414,288.7906Z" style="fill:#fff"/><path d="M278.0868,215.27a18.2035,18.2035,0,0,1-18.2031-18.2031V175.2084l-.7078-82.8428a18.204,18.204,0,0,1,18.0473-18.3584h.1583a18.2034,18.2034,0,0,1,18.2,18.0479l.7084,82.9222c.0006.0518.0006.1035.0006.1553v21.9345A18.2035,18.2035,0,0,1,278.0868,215.27Z" style="fill:#fff"/><path d="M207.909,148.93a10.71,10.71,0,0,1-3.4588-20.844l26.9015-9.1852,32.4245-39.3084a10.708,10.708,0,0,1,16.52,13.628l-34.3546,41.6483a10.7146,10.7146,0,0,1-4.8,3.32L211.37,148.3533A10.7006,10.7006,0,0,1,207.909,148.93Z" style="fill:#fff"/><circle cx="262.7003" cy="43.636" r="27.0468" style="fill:#fff"/><path d="M266.044,292.8374c-.15,0-.3021-.0036-.4538-.01a10.7073,10.7073,0,0,1-10.2523-11.1436l3.5448-85.0624a10.7075,10.7075,0,1,1,21.3965.8907l-3.5448,85.0624A10.7075,10.7075,0,0,1,266.044,292.8374Z" style="fill:#fff"/><path d="M297.2132,290.65a10.7083,10.7083,0,0,1-10.623-9.4753l-9.9243-85.5487a10.7076,10.7076,0,1,1,21.2725-2.4675l9.9243,85.5487a10.7084,10.7084,0,0,1-9.4025,11.8706A10.9234,10.9234,0,0,1,297.2132,290.65Z" style="fill:#fff"/><path d="M85.7146,229.7565H23.6983a1.9043,1.9043,0,0,1-1.9048-1.9042V184.6236a1.9043,1.9043,0,0,1,1.9048-1.9042H85.7146a1.9043,1.9043,0,0,1,1.9048,1.9042v43.2287A1.9043,1.9043,0,0,1,85.7146,229.7565Zm-60.1114-3.8084H83.81v-39.42H25.6031Z" style="fill:#fff"/><rect x="44.0398" y="169.3416" width="23.0394" height="7.0431" style="fill:#fff"/><path d="M67.0793,178.5258H44.04a2.141,2.141,0,0,1-2.1413-2.1413v-7.0427A2.141,2.141,0,0,1,44.04,167.2h23.04a2.141,2.141,0,0,1,2.1413,2.1413v7.0427A2.141,2.141,0,0,1,67.0793,178.5258Zm-20.8982-4.2827H64.938v-2.76H46.1811Z" style="fill:#fff"/></svg>