<svg id="Layer_1" data-name="Layer 1" xmlns="http://www.w3.org/2000/svg" viewBox="0 0 282 299"><title>Services Icons</title><path d="M142.7976,46.2926V65.2883H161.066v4.8509H142.7976v19.16h-5.1735v-19.16H119.3525V65.2883h18.2717V46.2926Z" style="fill:#fff"/><path d="M142.7977,93.4951h-5.1735a4.1958,4.1958,0,0,1-4.1958-4.1958V74.3352H119.3526a4.1958,4.1958,0,0,1-4.1958-4.1958V65.2879a4.1958,4.1958,0,0,1,4.1958-4.1958h14.0757V46.2928a4.1958,4.1958,0,0,1,4.1958-4.1958h5.1735a4.1958,4.1958,0,0,1,4.1958,4.1958V61.0921h14.0724a4.1958,4.1958,0,0,1,4.1958,4.1958v4.8514a4.1958,4.1958,0,0,1-4.1958,4.1958H146.9935v14.964A4.1958,4.1958,0,0,1,142.7977,93.4951Z" style="fill:#fff"/><path d="M69.3259,141.3825a2.9373,2.9373,0,0,1-2.9363-2.9371V72.1512c0-32.7463,69.85-57.9254,72.8227-58.9809a2.9247,2.9247,0,0,1,2.1475.0713,325.4439,325.4439,0,0,1,35.8174,18.7c24.453,14.9747,36.8516,28.503,36.8516,40.21v66.2942a2.9373,2.9373,0,0,1-5.0809,2.0078c-.302-.3221-30.807-32.3218-70.878-32.4505-23.6319-.0541-46.0554,10.8477-66.615,32.4669A2.9352,2.9352,0,0,1,69.3259,141.3825Zm68.497-39.254h.3159c33.1684.127,59.3936,19.9818,70.0159,29.4454V72.1512c0-19.0517-48.1111-44.28-68.0528-53.05a246.1023,246.1023,0,0,0-33.9449,15.8852C90.6952,43.872,72.2638,57.533,72.2638,72.1512v59.1858C92.528,111.9469,114.5536,102.1285,137.8229,102.1285Z" style="fill:#fff"/><path d="M140.7514,213.7016c-36.8615,0-68.4449-45.7633-68.4449-83.2283h7.8549c0,33.2241,28.5276,75.3742,60.59,75.3742,14.9972,0,29.8269-8.9243,41.7575-25.1283,10.9006-14.8042,17.6721-34.0575,17.6721-50.2459h7.8549c0,18.0495-7.1784,38.5738-19.2017,54.9039C175.385,203.6422,158.3091,213.7016,140.7514,213.7016Z" style="fill:#fff"/><path d="M140.5063,283.4114a3.9288,3.9288,0,0,1-3.04-1.44c-12.4252-15.1828-43.2478-52.8249-49.4559-60.3192-3.1969-.07-6.783-.304-10.5441-.5491-17.1009-1.117-38.3845-2.5027-50.2119,8.5793-6.2085,5.8168-9.2263,14.515-9.2263,26.5919H10.1737c0-14.1683,3.94-25.0431,11.7106-32.3235,14.3121-13.41,38.46-11.8344,56.0939-10.6863,4.372.2852,8.5015.5548,11.8795.5548,1.873,0,2.1917.386,5.2407,4.0795,1.3948,1.69,3.3808,4.104,5.76,7.001,4.7551,5.7889,11.0833,13.5078,17.4078,21.2267,8.8666,10.8207,17.7258,21.6421,22.23,27.1451,4.4786-5.507,13.282-16.3228,22.1146-27.14,7.3214-8.9661,13.1755-16.1113,17.4-21.2365,2.395-2.9051,4.4015-5.3259,5.8242-7.0206,2.8846-3.4362,3.4046-4.0549,5.32-4.0549,3.378,0,7.5074-.27,11.8795-.5548,17.6327-1.1473,41.7821-2.724,56.0939,10.6863,7.77,7.28,11.7106,18.1552,11.7106,32.3235h-7.8549c0-12.077-3.0178-20.7751-9.2263-26.5919-11.8274-11.0813-33.1122-9.6963-50.2119-8.5793-3.7935.2475-7.4091.4827-10.6264.5507-5.5255,6.4831-31.7207,38.5967-49.3654,60.3077a3.9268,3.9268,0,0,1-3.0412,1.45Z" style="fill:#fff"/><path d="M230.5983,287H186.9908a2.5174,2.5174,0,0,1-2.5175-2.5175V257.666a2.5174,2.5174,0,0,1,2.5175-2.5175h43.6076a2.5174,2.5174,0,0,1,2.5175,2.5175v26.8165A2.5174,2.5174,0,0,1,230.5983,287Zm-41.09-5.035h38.5726V260.1835H189.5083Z" style="fill:#fff"/><path d="M208.7948,259.7066a3.3568,3.3568,0,0,1-3.3567-3.3567v-7.6541a3.3567,3.3567,0,1,1,6.7133,0V256.35A3.3568,3.3568,0,0,1,208.7948,259.7066Z" style="fill:#fff"/><path d="M145.7864,237.0475v-5.8742c5.0543,0,17.6811-5.1678,45.4646-39.7793,11.582-14.4289,21.7642-29.0045,26.6439-36.1653h-10.01v-5.8742h15.5246a2.9371,2.9371,0,0,1,2.4552,4.549c-.1348.2057-13.6922,20.8071-30.0076,41.1355C173.1707,223.3061,156.7927,237.0475,145.7864,237.0475Z" style="fill:#fff"/><path d="M131.101,237.0475c-11.0063,0-27.3844-13.7414-50.0705-42.0083-16.3154-20.3285-29.8728-40.93-30.0076-41.1355a2.9371,2.9371,0,0,1,2.4552-4.549H69.0026v5.8742h-10.01c4.88,7.1608,15.062,21.7364,26.6439,36.1653,27.7835,34.6115,40.41,39.7793,45.4646,39.7793Z" style="fill:#fff"/><path d="M61.45,281.0127a19.21,19.21,0,1,1,19.21-19.21A19.2318,19.2318,0,0,1,61.45,281.0127Zm0-34.4058a15.196,15.196,0,1,0,15.196,15.196A15.2131,15.2131,0,0,0,61.45,246.6069Z" style="fill:#fff"/><path d="M61.45,273.9757a12.1724,12.1724,0,1,1,12.1724-12.1728A12.1869,12.1869,0,0,1,61.45,273.9757Zm0-21.8011a9.6287,9.6287,0,1,0,9.6287,9.6283A9.64,9.64,0,0,0,61.45,252.1746Z" style="fill:#fff"/><path d="M147.0451,242.6848H129.8422a1.8611,1.8611,0,0,1-1.8611-1.8611V228.2362a1.8611,1.8611,0,0,1,1.8611-1.8611h17.2029a1.8611,1.8611,0,0,1,1.8611,1.8611v12.5875A1.8611,1.8611,0,0,1,147.0451,242.6848Zm-15.3418-3.7222H145.184v-8.8653H131.7033Z" style="fill:#fff"/><path d="M117.68,281.46a20.8411,20.8411,0,0,1-6.279-.9129,2.515,2.515,0,0,1-1.2284-.9154c-.2422-.3376-24.3256-33.9272-33.7195-43.322-2.5716-2.5716-5.1854-3.8312-7.7426-3.7779a9.4273,9.4273,0,0,0-5.5824,2.2536v8.136h-5.035v-9.2308a2.5173,2.5173,0,0,1,.6507-1.689,14.8345,14.8345,0,0,1,9.8409-4.5031c3.9865-.1287,7.8434,1.6669,11.4283,5.2513,9.0194,9.0186,30.0776,38.1436,33.7383,43.2335a15.7466,15.7466,0,0,0,12.74-2.311c6.5843-4.7433,10.0643-15.6672,10.0643-31.59h5.035c0,17.9159-4.1139,29.9363-12.2277,35.7269A19.8683,19.8683,0,0,1,117.68,281.46Z" style="fill:#fff"/></svg>